<svg width="100" height="101" viewBox="0 0 100 101" fill="none" xmlns="http://www.w3.org/2000/svg">
<path d="M41.9568 0.971331L41.9588 0.97098C52.2154 -0.812679 62.7724 0.738004 72.0869 5.39645L72.0869 5.39652L72.0925 5.39918C72.7816 5.72243 73.3747 6.21997 73.8136 6.84284C74.125 7.33333 74.2295 7.83209 74.1662 8.31523C74.1022 8.80299 73.8646 9.29271 73.4626 9.75228C72.6978 10.6265 71.5412 10.804 70.2097 10.2827L70.2095 10.2826C69.3975 9.96526 68.5851 9.62424 67.769 9.2817C65.6499 8.39225 63.5064 7.49249 61.2818 6.96953C44.0184 2.91041 29.1105 7.36828 17.1063 20.4087L17.1062 20.4088C8.38435 29.8939 4.82205 41.4138 5.9675 54.2351C7.64211 73.1625 21.4792 88.9128 40.097 93.3544C64.8784 99.2641 89.8666 82.5607 93.9783 57.3463C94.9766 51.3584 94.7476 45.2294 93.3051 39.3331L93.3045 39.3304C93.1365 38.6756 93.0599 38.071 93.153 37.5243C93.2446 36.9867 93.5027 36.4905 94.0352 36.0486C95.5993 34.764 97.8887 35.5664 98.246 37.7405L98.2461 37.7406C98.3493 38.366 98.456 38.9917 98.5627 39.6174C99.1502 43.0625 99.7381 46.5104 99.7497 49.9444C99.8316 72.6245 84.6475 92.2588 62.7597 98.1057C35.7798 105.314 7.77252 88.2539 1.78549 60.8679L1.78544 60.8677C1.25591 58.455 0.968037 55.9982 0.678568 53.5278C0.54421 52.3812 0.409509 51.2316 0.250142 50.0822C0.453584 25.877 18.1556 4.90984 41.9568 0.971331Z" fill="#18C145" stroke="#111111" stroke-width="0.5"/>
<path d="M48.6443 55.5489L48.8709 55.7765L49.036 55.501C49.321 55.025 49.6417 54.5714 49.9953 54.1441C64.3043 39.7944 78.618 25.4516 92.9362 11.1156L92.9363 11.1157L92.9421 11.1094C93.3144 10.7104 93.7123 10.3361 94.1334 9.98911C94.6183 9.61833 95.219 9.4324 95.828 9.46449C96.4385 9.49666 97.0176 9.74577 97.4615 10.1673L97.4637 10.1694C97.913 10.5856 98.1969 11.1507 98.263 11.7604C98.3289 12.3689 98.1734 12.9808 97.8252 13.4834C97.5271 13.8846 97.1934 14.258 96.828 14.5988L96.8279 14.5987L96.8215 14.6051C81.6104 29.8635 66.3867 45.1207 51.1504 60.3768L51.1502 60.377C50.1601 61.371 49.3797 61.8126 48.6442 61.8167C47.9097 61.8208 47.1354 61.3891 46.1563 60.4078L46.156 60.4076C45.5227 59.7744 44.8893 59.1414 44.2559 58.5085C40.4569 54.7125 36.6602 50.9189 32.9013 47.0721C32.6039 46.7658 32.311 46.3573 32.0985 45.9294C31.884 45.4974 31.7634 45.0698 31.781 44.7205C31.7984 44.3742 31.9655 43.971 32.2274 43.5745C32.4867 43.1818 32.8237 42.8188 33.1477 42.5558L33.1481 42.5555C33.8717 41.9659 34.855 42.0826 35.7258 42.701C36.1236 43.0013 36.4942 43.3361 36.8335 43.7015L36.8333 43.7016L36.8399 43.7082C40.516 47.3824 44.1826 51.0662 48.1533 55.0556L48.6443 55.5489Z" fill="#18C145" stroke="#111111" stroke-width="0.5"/>
</svg>
