<svg width="1893" height="1893" viewBox="0 0 1893 1893" fill="none" xmlns="http://www.w3.org/2000/svg">
<rect width="1893" height="1893" rx="515" fill="#F5C945"/>
<path d="M1377.16 455.771L1235.24 455.658L1266.7 555.694L1277.31 589.445L1249.47 610.251L1009.98 789.445L1221.6 948.283L1472.89 760.289L1377.16 455.771Z" fill="#1A1A1A"/>
<path d="M643.323 609.888L615.53 589.013L626.18 555.317L657.639 455.646L516.235 455.534L420.104 759.941L671.087 948.327L882.99 789.77L643.323 609.888Z" fill="#1A1A1A"/>
<path d="M922.192 616.848L707.451 455.727L671.21 570.473L922.192 758.859L922.328 758.747V616.82L922.192 616.848Z" fill="#1A1A1A"/>
<path d="M1185.57 455.89L970.547 616.758V758.685L1221.68 570.804L1185.57 455.89Z" fill="#1A1A1A"/>
<path d="M698.907 987.813L671.74 1008.17L671.21 1009.82L922.192 1198.21L922.328 1198.1V820.654L698.907 987.813Z" fill="#1A1A1A"/>
<path d="M1221.07 1008.29L1193.76 987.779L970.832 820.451L970.547 820.662V1198.11L1221.68 1010.22L1221.07 1008.29Z" fill="#1A1A1A"/>
<path d="M922.152 1258.54L894.36 1237.67L717.856 1105.22L671.21 1252.95L922.192 1441.33L922.328 1441.22V1258.4L922.152 1258.54Z" fill="#1A1A1A"/>
<path d="M1175.17 1105.31L998.203 1237.71L970.547 1258.41V1441.23L1221.68 1253.35L1175.17 1105.31Z" fill="#1A1A1A"/>
</svg>
