<svg width="42" height="39" viewBox="0 0 42 39" fill="none" xmlns="http://www.w3.org/2000/svg">
<path d="M38.1974 0.461218L32.5596 0.456787L33.8096 4.27303L34.231 5.55985L33.1254 6.35361L23.6113 13.1864L32.0184 19.2432L42.0001 12.075L38.1974 0.461218Z" fill="#FFC800"/>
<path d="M9.04494 6.33744L7.94092 5.54146L8.36376 4.25612L9.61371 0.455349L3.99679 0.45166L0.177734 12.0596L10.1482 19.2425L18.5673 13.199L9.04494 6.33744Z" fill="#E1AA00"/>
<path d="M20.1228 6.60359L11.5921 0.457642L10.1523 4.83254L20.1228 12.0154L20.128 12.011V6.59695L20.1228 6.60359Z" fill="#E1AA00"/>
<path d="M30.5837 0.46582L22.041 6.59996V12.0118L32.0167 4.84809L30.5837 0.46582Z" fill="#FFC800"/>
<path d="M11.2526 20.7489L10.1732 21.525L10.1523 21.5884L20.1228 28.7713L20.128 28.7668V14.3745L11.2526 20.7489Z" fill="#E1AA00"/>
<path d="M31.9978 21.5295L30.9132 20.7475L22.0541 14.3672L22.043 14.3753V28.7676L32.0187 21.6039L31.9978 21.5295Z" fill="#FFC800"/>
<path d="M20.1213 31.0715L19.0173 30.2763L12.0053 25.2256L10.1523 30.8585L20.1228 38.0414L20.128 38.037V31.0656L20.1213 31.0715Z" fill="#E1AA00"/>
<path d="M30.1717 25.2285L23.1418 30.277L22.043 31.0664V38.0378L32.0187 30.874L30.1717 25.2285Z" fill="#FFC800"/>
</svg>
