<svg xmlns="http://www.w3.org/2000/svg" width="6.65268in" height="1.5273in" viewBox="0 0 478.99278 109.9656">
  <g>
    <rect width="478.99278" height="109.9656" style="fill: none"/>
    <path d="M369.07449,318.1266V303.1004c0-5.6598-3.6062-9.4663-9.4162-9.5165a9.2729,9.2729,0,0,0-8.4146,4.2575,8.79347,8.79347,0,0,0-7.9138-4.2575,7.91741,7.91741,0,0,0-7.01189,3.5563V294.185h-5.20931v23.9416h5.2591V304.8533c0-4.1571,2.30421-6.3605,5.86021-6.3605,3.45589,0,5.20919,2.2536,5.20919,6.3107v13.3231h5.2591V304.8533c0-4.1571,2.4042-6.3605,5.8601-6.3605,3.556,0,5.259,2.2536,5.259,6.3107v13.3231Zm77.8349-23.9416h-8.5147v-7.2624h-5.259v7.2624h-4.8586v4.7583h4.8586v10.9188c0,5.5599,2.1537,8.8657,8.3142,8.8657a12.23753,12.23753,0,0,0,6.5112-1.8533l-1.5023-4.4579a9.61681,9.61681,0,0,1-4.6082,1.3525c-2.6045,0-3.4559-1.6031-3.4559-4.0069V298.9433h8.5147Zm44.427-.6011a7.06117,7.06117,0,0,0-6.3107,3.5061v-2.905h-5.1591v23.9416h5.2088V304.7031c0-3.9567,1.7031-6.1606,5.1093-6.1606a8.48562,8.48562,0,0,1,3.2557.6012l1.6027-4.9085a11.13137,11.13137,0,0,0-3.7067-.6513Zm-67.1663,2.5046a17.90313,17.90313,0,0,0-9.767-2.5046c-6.0607,0-9.9672,2.905-9.9672,7.6632,0,3.907,2.905,6.3112,8.2639,7.0626l2.4546.3505c2.8547.4004,4.2072,1.1517,4.2072,2.5043,0,1.8532-1.9035,2.905-5.4594,2.905a12.756,12.756,0,0,1-7.9641-2.5043l-2.454,4.0567a17.27273,17.27273,0,0,0,10.368,3.1059c6.9118,0,10.9187-3.2561,10.9187-7.8139,0-4.2074-3.1552-6.4112-8.3644-7.1625l-2.454-.3506c-2.254-.3004-4.057-.7509-4.057-2.3536,0-1.7533,1.7025-2.805,4.5578-2.805a15.43216,15.43216,0,0,1,7.4629,2.0536Zm139.542-2.5046a7.06115,7.06115,0,0,0-6.3109,3.5061v-2.905h-5.159v23.9416h5.2089V304.7031c0-3.9567,1.703-6.1606,5.1087-6.1606a8.48554,8.48554,0,0,1,3.2561.6012l1.6026-4.9085a11.12926,11.12926,0,0,0-3.7064-.6513Zm-67.1167,12.5717c0,7.2629,5.0591,12.5722,12.7727,12.5722a12.541,12.541,0,0,0,8.6144-2.8553l-2.5041-4.2073a10.52341,10.52341,0,0,1-6.261,2.1536c-4.157-.0497-7.2123-3.0551-7.2123-7.6632,0-4.6077,3.0553-7.6131,7.2123-7.6628a10.52341,10.52341,0,0,1,6.261,2.1536l2.5041-4.2073a12.541,12.541,0,0,0-8.6144-2.8552c-7.7136,0-12.7727,5.3092-12.7727,12.5717Zm48.7847,0V294.185h-5.2087v2.905a9.08358,9.08358,0,0,0-7.5635-3.5061c-6.7115,0-11.9705,5.2595-11.9705,12.5717,0,7.3127,5.259,12.5722,11.9705,12.5722a9.08365,9.08365,0,0,0,7.5635-3.5062v2.905h5.2087Zm-19.3837,0c0-4.2073,2.7548-7.6628,7.263-7.6628,4.3072,0,7.2122,3.3053,7.2122,7.6628s-2.905,7.6632-7.2122,7.6632c-4.5082,0-7.263-3.4559-7.263-7.6632Zm-62.8586-12.5717c-7.0123,0-11.9207,5.1088-11.9207,12.5717,0,7.6135,5.1087,12.5722,12.2713,12.5722a14.55317,14.55317,0,0,0,9.817-3.356l-2.5546-3.8568a11.40585,11.40585,0,0,1-6.9621,2.5043c-3.356,0-6.4111-1.5525-7.1625-5.8603h17.781c.0502-.6509.1-1.3018.1-2.0034-.0498-7.4629-4.6578-12.5717-11.3694-12.5717Zm-.1004,4.6583c3.356,0,5.5097,2.1034,6.0607,5.81h-12.4217c.551-3.456,2.6544-5.81,6.361-5.81Zm130.6767,7.9134V284.5685h-5.2092V297.09a9.08274,9.08274,0,0,0-7.5628-3.5061c-6.712,0-11.971,5.2595-11.971,12.5717,0,7.3127,5.259,12.5722,11.971,12.5722a9.08281,9.08281,0,0,0,7.5628-3.5062v2.905h5.2092Zm6.08769,9.7617a1.52658,1.52658,0,0,1,.6016.1191,1.567,1.567,0,0,1,.4917.3258,1.5323,1.5323,0,0,1,.3311.4843,1.49325,1.49325,0,0,1,0,1.1786,1.54129,1.54129,0,0,1-.3311.4822,1.59632,1.59632,0,0,1-.4917.3276,1.502,1.502,0,0,1-.6016.1212,1.548,1.548,0,0,1-1.4356-.931,1.49779,1.49779,0,0,1,0-1.1786,1.52044,1.52044,0,0,1,.8232-.8101A1.57162,1.57162,0,0,1,599.80178,315.9173Zm0,2.7036a1.133,1.133,0,0,0,.4583-.093,1.209,1.209,0,0,0,.3721-.2534,1.19145,1.19145,0,0,0,0-1.676,1.18032,1.18032,0,0,0-.3721-.2511,1.14556,1.14556,0,0,0-.4583-.0913,1.19459,1.19459,0,0,0-.4674.0913,1.18656,1.18656,0,0,0-.3779,1.9271,1.19462,1.19462,0,0,0,.3779.2534A1.18147,1.18147,0,0,0,599.80178,318.6209Zm.0894-1.8956a.643.643,0,0,1,.4192.1212.40367.40367,0,0,1,.147.3294.38354.38354,0,0,1-.1173.2885.56088.56088,0,0,1-.3334.1397l.4618.5325h-.3611l-.4283-.5289h-.138v.5289h-.3015v-1.4113Zm-.3501.2645v.3761h.3465a.33978.33978,0,0,0,.19-.0467.15954.15954,0,0,0,.0706-.1433.1565.1565,0,0,0-.0706-.1397.34316.34316,0,0,0-.19-.0464Zm-25.21059-10.8342c0-4.2073,2.7549-7.6628,7.2624-7.6628,4.3073,0,7.2123,3.3053,7.2123,7.6628s-2.905,7.6632-7.2123,7.6632c-4.5075,0-7.2624-3.4559-7.2624-7.6632Zm-175.905,0V294.185h-5.2092v2.905a9.08286,9.08286,0,0,0-7.5632-3.5061c-6.7115,0-11.9705,5.2595-11.9705,12.5717,0,7.3127,5.259,12.5722,11.9705,12.5722a9.08293,9.08293,0,0,0,7.5632-3.5062v2.905h5.2092Zm-19.38349,0c0-4.2073,2.75479-7.6628,7.26249-7.6628,4.3073,0,7.2122,3.3053,7.2122,7.6628s-2.9049,7.6632-7.2122,7.6632C381.79679,313.8188,379.042,310.3629,379.042,306.1556Z" transform="translate(-152.687 -251.0172)" style="fill: #231f20"/>
    <g>
      <rect x="80.46069" y="26.6796" width="31.5" height="56.6064" style="fill: #ff5f00"/>
      <path d="M235.14789,306a35.9375,35.9375,0,0,1,13.7499-28.3032,36,36,0,1,0,0,56.6064A35.938,35.938,0,0,1,235.14789,306Z" transform="translate(-152.687 -251.0172)" style="fill: #eb001b"/>
      <path d="M307.143,306a35.99867,35.99867,0,0,1-58.24521,28.3032,36.00518,36.00518,0,0,0,0-56.6064A35.99867,35.99867,0,0,1,307.143,306Z" transform="translate(-152.687 -251.0172)" style="fill: #f79e1b"/>
      <path d="M303.70839,328.3077v-1.1589h.4673v-.2361h-1.1901v.2361h.4675v1.1589Zm2.3105,0v-1.3973h-.3648l-.4196.9611-.4197-.9611h-.365v1.3973h.2576v-1.054l.3935.9087h.26711l.39349-.911v1.0563Z" transform="translate(-152.687 -251.0172)" style="fill: #f79e1b"/>
    </g>
  </g>
</svg>
