<svg width="123" height="124" viewBox="0 0 123 124" fill="none" xmlns="http://www.w3.org/2000/svg">
<path opacity="0.7" d="M122.009 64.1869C121.991 64.6762 121.78 65.1383 121.422 65.4724C121.064 65.8065 120.589 65.9855 120.1 65.9702C119.61 65.9517 119.149 65.7405 118.815 65.3825C118.481 65.0245 118.302 64.5489 118.317 64.0594C118.336 63.5701 118.547 63.108 118.905 62.7739C119.262 62.4398 119.738 62.2609 120.227 62.2762C120.705 62.2909 121.158 62.4912 121.491 62.8347C121.823 63.1782 122.009 63.6378 122.009 64.1161L122.009 64.1869Z" fill="url(#paint0_linear_25_1814)"/>
<path opacity="0.8" d="M119.958 56.1904C119.472 56.2506 118.983 56.1162 118.596 55.8166C118.209 55.517 117.956 55.0764 117.893 54.5911C117.861 54.3502 117.877 54.1055 117.941 53.871C118.004 53.6365 118.113 53.4168 118.262 53.2247C118.41 53.0326 118.595 52.8718 118.806 52.7517C119.017 52.6316 119.25 52.5545 119.491 52.5248C119.974 52.4643 120.462 52.5968 120.849 52.8935C121.235 53.1901 121.489 53.6271 121.556 54.1099L121.556 54.3505C121.557 54.7987 121.396 55.232 121.102 55.5702C120.808 55.9085 120.402 56.1288 119.958 56.1904Z" fill="url(#paint1_linear_25_1814)"/>
<path opacity="0.6" d="M120.835 74.2075C120.727 74.6802 120.439 75.0921 120.032 75.3562C119.626 75.6204 119.132 75.7159 118.657 75.6228C118.183 75.5175 117.769 75.2301 117.504 74.8225C117.239 74.4148 117.145 73.9195 117.242 73.4432C117.344 72.9668 117.631 72.5503 118.039 72.2849C118.447 72.0196 118.944 71.9271 119.421 72.0279C119.827 72.1243 120.188 72.3562 120.445 72.6854C120.703 73.0147 120.84 73.4217 120.835 73.8395C120.849 73.9618 120.849 74.0852 120.835 74.2075Z" fill="url(#paint2_linear_25_1814)"/>
<path opacity="0.9" d="M118.19 46.4957C117.958 46.5674 117.715 46.5923 117.474 46.5691C117.233 46.5458 116.999 46.4748 116.786 46.3602C116.573 46.2456 116.385 46.0897 116.232 45.9016C116.08 45.7135 115.966 45.4968 115.898 45.2643C115.827 45.033 115.802 44.7897 115.825 44.5486C115.848 44.3075 115.919 44.0734 116.034 43.86C116.148 43.6466 116.304 43.4582 116.492 43.3057C116.68 43.1531 116.896 43.0395 117.129 42.9715C117.36 42.9018 117.603 42.8783 117.843 42.9024C118.083 42.9266 118.317 42.9978 118.529 43.1122C118.742 43.2265 118.93 43.3818 119.083 43.5689C119.236 43.756 119.351 43.9714 119.42 44.2029C119.477 44.3765 119.506 44.558 119.505 44.7407C119.506 45.1363 119.377 45.5214 119.14 45.8379C118.903 46.1544 118.569 46.3852 118.19 46.4957Z" fill="url(#paint3_linear_25_1814)"/>
<path opacity="0.5" d="M118.005 83.8881C117.919 84.1141 117.789 84.3208 117.623 84.4965C117.457 84.6721 117.258 84.8133 117.037 84.9119C116.816 85.0105 116.579 85.0645 116.337 85.071C116.095 85.0775 115.855 85.0362 115.629 84.9496C115.402 84.8634 115.193 84.733 115.017 84.5657C114.84 84.3985 114.698 84.1978 114.6 83.9753C114.501 83.7528 114.447 83.513 114.442 83.2697C114.436 83.0264 114.479 82.7844 114.568 82.5577C114.654 82.3318 114.784 82.1252 114.95 81.9495C115.117 81.7739 115.316 81.6327 115.536 81.5341C115.757 81.4355 115.995 81.3814 116.237 81.3749C116.478 81.3684 116.719 81.4096 116.945 81.4962C117.294 81.6305 117.594 81.8673 117.806 82.1755C118.018 82.4837 118.132 82.8488 118.133 83.223C118.133 83.4508 118.09 83.6765 118.005 83.8881Z" fill="url(#paint4_linear_25_1814)"/>
<path d="M114.879 37.353C114.662 37.4619 114.426 37.5268 114.183 37.5437C113.941 37.5607 113.698 37.5294 113.468 37.4517C113.238 37.3741 113.025 37.2516 112.843 37.0914C112.66 36.9311 112.511 36.7362 112.404 36.518C112.295 36.3008 112.23 36.0641 112.213 35.8217C112.197 35.5792 112.228 35.3358 112.305 35.1056C112.383 34.8753 112.505 34.6626 112.666 34.48C112.826 34.2973 113.02 34.1482 113.239 34.0412C113.678 33.8251 114.185 33.7916 114.648 33.948C115.112 34.1045 115.495 34.4381 115.714 34.8762C115.835 35.1329 115.898 35.4133 115.898 35.6971C115.9 36.0408 115.805 36.378 115.625 36.6707C115.445 36.9633 115.187 37.1997 114.879 37.353Z" fill="url(#paint5_linear_25_1814)"/>
<path opacity="0.4" d="M113.621 92.9745C113.371 93.3959 112.964 93.7009 112.49 93.8229C112.015 93.9449 111.512 93.8739 111.089 93.6255C110.879 93.5028 110.696 93.3397 110.549 93.1456C110.403 92.9515 110.296 92.7302 110.236 92.4946C110.175 92.259 110.162 92.0138 110.197 91.7731C110.232 91.5323 110.314 91.3009 110.439 91.0921C110.56 90.8825 110.721 90.6992 110.914 90.5527C111.107 90.4063 111.327 90.2997 111.561 90.2391C111.796 90.1785 112.04 90.1652 112.279 90.1999C112.519 90.2345 112.749 90.3165 112.956 90.441C113.236 90.6007 113.468 90.8314 113.629 91.1098C113.791 91.3882 113.876 91.7043 113.876 92.0262C113.881 92.3599 113.793 92.6885 113.621 92.9745Z" fill="url(#paint6_linear_25_1814)"/>
<path d="M110.055 28.8317C109.659 29.1163 109.166 29.2328 108.684 29.156C108.202 29.0791 107.769 28.8151 107.481 28.4212C107.338 28.2242 107.235 28.0009 107.178 27.7642C107.121 27.5274 107.112 27.2817 107.15 27.0412C107.188 26.8007 107.273 26.57 107.4 26.3624C107.527 26.1548 107.694 25.9743 107.891 25.8312C108.288 25.5466 108.781 25.43 109.263 25.5069C109.745 25.5837 110.177 25.8478 110.465 26.2416C110.695 26.5584 110.819 26.9399 110.819 27.3315C110.817 27.6237 110.747 27.9113 110.614 28.1717C110.482 28.4321 110.29 28.6581 110.055 28.8317Z" fill="url(#paint7_linear_25_1814)"/>
<path opacity="0.3" d="M107.806 101.211C107.493 101.585 107.044 101.818 106.559 101.861C106.074 101.903 105.591 101.751 105.218 101.438C105.03 101.284 104.875 101.093 104.761 100.878C104.647 100.664 104.577 100.428 104.555 100.186C104.532 99.9439 104.558 99.6997 104.631 99.4676C104.703 99.2354 104.821 99.02 104.977 98.8338C105.293 98.4597 105.744 98.226 106.232 98.1835C106.72 98.1411 107.204 98.2935 107.58 98.6073C107.788 98.7799 107.955 98.9962 108.07 99.2408C108.185 99.4854 108.245 99.7524 108.245 100.023C108.243 100.458 108.088 100.879 107.806 101.211Z" fill="url(#paint8_linear_25_1814)"/>
<path d="M103.959 21.2033C103.612 21.5499 103.141 21.7445 102.651 21.7445C102.16 21.7445 101.69 21.5499 101.342 21.2033C101.171 21.0324 101.036 20.8295 100.943 20.6061C100.85 20.3826 100.803 20.1431 100.803 19.9012C100.803 19.6594 100.85 19.4199 100.943 19.1964C101.036 18.973 101.171 18.77 101.342 18.5991C101.513 18.4258 101.717 18.2882 101.942 18.1943C102.166 18.1004 102.407 18.052 102.651 18.052C102.894 18.052 103.135 18.1004 103.36 18.1943C103.584 18.2882 103.788 18.4258 103.959 18.5991C104.303 18.9455 104.496 19.4134 104.497 19.9012C104.499 20.1432 104.452 20.383 104.36 20.6067C104.267 20.8303 104.131 21.0332 103.959 21.2033Z" fill="url(#paint9_linear_25_1814)"/>
<path opacity="0.2" d="M100.734 108.373C100.551 108.532 100.338 108.653 100.107 108.729C99.877 108.805 99.6338 108.835 99.3919 108.816C99.15 108.798 98.9141 108.732 98.6978 108.622C98.4815 108.512 98.2892 108.36 98.1318 108.175C97.973 107.992 97.8522 107.778 97.7762 107.548C97.7002 107.317 97.6705 107.074 97.6889 106.832C97.7073 106.59 97.7734 106.354 97.8834 106.137C97.9934 105.921 98.1452 105.728 98.3298 105.571C98.702 105.254 99.1844 105.097 99.6719 105.134C100.159 105.171 100.613 105.399 100.932 105.769C101.217 106.105 101.372 106.532 101.371 106.972C101.374 107.238 101.319 107.501 101.209 107.744C101.099 107.986 100.937 108.201 100.734 108.373Z" fill="url(#paint10_linear_25_1814)"/>
<path d="M96.6608 14.6928C96.5212 14.8916 96.3436 15.0607 96.1384 15.1905C95.9331 15.3203 95.7042 15.4081 95.4649 15.4489C95.2256 15.4897 94.9805 15.4826 94.7439 15.4281C94.5073 15.3737 94.2839 15.2729 94.0864 15.1316C93.8878 14.9919 93.7186 14.8142 93.589 14.6089C93.4593 14.4035 93.3716 14.1745 93.3308 13.935C93.2901 13.6955 93.297 13.4503 93.3515 13.2136C93.4059 12.9768 93.5067 12.7533 93.6479 12.5557C93.7875 12.3569 93.965 12.1877 94.1702 12.0579C94.3755 11.9282 94.6044 11.8404 94.8437 11.7997C95.0831 11.7589 95.3281 11.7658 95.5647 11.8203C95.8013 11.8748 96.0248 11.9756 96.2222 12.1169C96.4642 12.288 96.6614 12.515 96.7969 12.7786C96.9323 13.0423 97.0021 13.3349 97.0003 13.6313C96.9986 14.0116 96.8801 14.3822 96.6608 14.6928Z" fill="url(#paint11_linear_25_1814)"/>
<path d="M88.3994 9.45685C88.1828 9.89726 87.8018 10.2347 87.3386 10.3963C86.8754 10.5578 86.3672 10.5305 85.924 10.3202C85.7065 10.2144 85.5119 10.0668 85.3515 9.88575C85.1911 9.70469 85.0679 9.49374 84.9891 9.26499C84.9102 9.03624 84.8773 8.79419 84.8921 8.55267C84.9069 8.31116 84.9692 8.07495 85.0753 7.85754C85.1797 7.63867 85.3263 7.44256 85.5067 7.28058C85.6871 7.11861 85.8977 6.99394 86.1264 6.91371C86.3552 6.83348 86.5975 6.79926 86.8395 6.81307C87.0815 6.82688 87.3184 6.88849 87.5365 6.99422C87.8502 7.14217 88.1153 7.37647 88.3007 7.66974C88.4861 7.96302 88.5841 8.3031 88.5832 8.65011C88.5865 8.92979 88.5235 9.20627 88.3994 9.45685Z" fill="url(#paint12_linear_25_1814)"/>
<path d="M79.39 5.66369C79.2489 6.132 78.9298 6.52619 78.5014 6.76171C78.0729 6.99724 77.5693 7.05524 77.0985 6.92325C76.8647 6.85657 76.6463 6.74414 76.4562 6.59249C76.2661 6.44083 76.108 6.25295 75.9909 6.03972C75.8738 5.82648 75.8001 5.59219 75.7742 5.35029C75.7482 5.10838 75.7705 4.86369 75.8396 4.63045C75.9775 4.16001 76.2961 3.76339 76.7255 3.52733C77.1549 3.29126 77.6603 3.23505 78.1311 3.37088C78.5134 3.4835 78.8492 3.7164 79.0887 4.03509C79.3282 4.35378 79.4587 4.74129 79.4607 5.14003C79.4581 5.31678 79.4343 5.49257 79.39 5.66369Z" fill="url(#paint13_linear_25_1814)"/>
<path d="M69.8704 3.41317C69.8424 3.65418 69.767 3.88724 69.6486 4.09897C69.5301 4.31071 69.371 4.49695 69.1804 4.64691C68.9897 4.79687 68.7714 4.90758 68.5378 4.97275C68.3042 5.03792 68.0601 5.05628 67.8194 5.02665C67.5778 5.00044 67.3438 4.92619 67.1312 4.80827C66.9187 4.69035 66.7318 4.53115 66.5816 4.33999C66.4314 4.14882 66.3209 3.92953 66.2566 3.69504C66.1922 3.46055 66.1753 3.21554 66.2068 2.97443C66.2636 2.49041 66.51 2.04871 66.8918 1.74622C67.2737 1.44373 67.7599 1.30514 68.2437 1.36094C68.6927 1.41271 69.1073 1.62688 69.4095 1.96313C69.7117 2.29938 69.8806 2.73457 69.8845 3.18676L69.8845 3.41317L69.8704 3.41317Z" fill="url(#paint14_linear_25_1814)"/>
<path d="M58.3425 4.68678L58.2576 4.68678C57.7684 4.70989 57.2899 4.5382 56.9268 4.20933C56.5637 3.88047 56.3454 3.42112 56.3198 2.93172C56.3005 2.44083 56.4753 1.96215 56.8062 1.59925C57.1371 1.23634 57.5976 1.01842 58.0879 0.992745L58.1728 0.992745C58.4148 0.979419 58.657 1.01453 58.8853 1.09589C59.1136 1.17724 59.3233 1.30327 59.5024 1.46665C59.6815 1.63002 59.8263 1.82744 59.9283 2.04741C60.0303 2.26737 60.0874 2.50549 60.0965 2.74781L60.0965 2.83272C60.1006 3.30877 59.9202 3.76788 59.5931 4.11362C59.2661 4.45936 58.8178 4.66482 58.3425 4.68678Z" fill="url(#paint15_linear_25_1814)"/>
<path d="M48.8518 5.93302C48.3737 6.03404 47.8751 5.94196 47.4645 5.67689C47.0538 5.41182 46.7645 4.99521 46.6594 4.5177C46.5581 4.03756 46.6497 3.53677 46.9144 3.12364C47.1791 2.71051 47.5956 2.4182 48.0739 2.30982C48.552 2.2088 49.0506 2.30079 49.4613 2.56586C49.8719 2.83093 50.1612 3.24762 50.2663 3.72513L50.2663 4.12137C50.2661 4.5379 50.1269 4.94239 49.8706 5.27063C49.6143 5.59886 49.2557 5.83204 48.8518 5.93302Z" fill="url(#paint16_linear_25_1814)"/>
<path d="M39.7986 8.67778C39.3427 8.85914 38.8336 8.8522 38.3828 8.65852C37.932 8.46484 37.5764 8.10018 37.3939 7.64455C37.2179 7.18832 37.2291 6.68094 37.4251 6.23295C37.6212 5.78495 37.9862 5.43263 38.4407 5.25267C38.6654 5.16312 38.9056 5.11883 39.1475 5.12231C39.3893 5.12579 39.6281 5.17699 39.8501 5.27297C40.0722 5.36894 40.2732 5.50784 40.4415 5.68165C40.6099 5.85546 40.7423 6.06081 40.8312 6.2859C40.9142 6.50281 40.9574 6.73294 40.9585 6.96522C40.959 7.33412 40.8487 7.69463 40.6418 8.00001C40.435 8.3054 40.1412 8.54157 39.7986 8.67778Z" fill="url(#paint17_linear_25_1814)"/>
<path d="M31.3247 12.91C30.9058 13.1609 30.4048 13.2362 29.9307 13.1196C29.4566 13.003 29.0476 12.7039 28.7927 12.2873C28.6663 12.0792 28.5822 11.8481 28.5451 11.6074C28.508 11.3667 28.5186 11.1211 28.5764 10.8845C28.6342 10.6479 28.7381 10.425 28.882 10.2286C29.0259 10.0322 29.207 9.86611 29.4151 9.73976C29.834 9.48888 30.3349 9.4135 30.809 9.53011C31.2831 9.64671 31.6922 9.9458 31.9471 10.3624C32.1223 10.6528 32.2152 10.9856 32.2158 11.3249C32.2131 11.6429 32.1301 11.9551 31.9743 12.2323C31.8184 12.5095 31.595 12.7427 31.3247 12.91Z" fill="url(#paint18_linear_25_1814)"/>
<path d="M23.6582 18.4719C23.4747 18.6308 23.2617 18.7517 23.0313 18.8277C22.8009 18.9038 22.5576 18.9334 22.3157 18.915C22.0737 18.8966 21.8379 18.8304 21.6216 18.7204C21.4053 18.6103 21.213 18.4585 21.0556 18.2738C20.8969 18.0901 20.776 17.8769 20.7 17.6463C20.624 17.4158 20.5943 17.1725 20.6127 16.9304C20.6311 16.6883 20.6972 16.4523 20.8072 16.2359C20.9172 16.0195 21.0689 15.827 21.2536 15.6695C21.4371 15.5107 21.6502 15.3899 21.8806 15.3138C22.111 15.2378 22.3542 15.2081 22.5962 15.2265C22.8381 15.2449 23.074 15.311 23.2903 15.4211C23.5065 15.5312 23.6989 15.6829 23.8563 15.8677C24.1468 16.2012 24.3075 16.6284 24.3089 17.0708C24.3075 17.3374 24.2487 17.6005 24.1364 17.8424C24.0241 18.0842 23.861 18.2989 23.6582 18.4719Z" fill="url(#paint19_linear_25_1814)"/>
<defs>
<linearGradient id="paint0_linear_25_1814" x1="121.358" y1="65.5314" x2="118.981" y2="62.7163" gradientUnits="userSpaceOnUse">
<stop stop-color="#FFC800"/>
<stop offset="1" stop-color="#E1AA00"/>
</linearGradient>
<linearGradient id="paint1_linear_25_1814" x1="2522.94" y1="-2335.48" x2="2516.73" y2="-2342.84" gradientUnits="userSpaceOnUse">
<stop stop-color="#FFC800"/>
<stop offset="1" stop-color="#E1AA00"/>
</linearGradient>
<linearGradient id="paint2_linear_25_1814" x1="2494.86" y1="-2249.65" x2="2488.69" y2="-2256.91" gradientUnits="userSpaceOnUse">
<stop stop-color="#FFC800"/>
<stop offset="1" stop-color="#E1AA00"/>
</linearGradient>
<linearGradient id="paint3_linear_25_1814" x1="2521.69" y1="-2363.71" x2="2515.51" y2="-2371.05" gradientUnits="userSpaceOnUse">
<stop stop-color="#FFC800"/>
<stop offset="1" stop-color="#E1AA00"/>
</linearGradient>
<linearGradient id="paint4_linear_25_1814" x1="2518.4" y1="-2233.41" x2="2512.19" y2="-2240.79" gradientUnits="userSpaceOnUse">
<stop stop-color="#FFC800"/>
<stop offset="1" stop-color="#E1AA00"/>
</linearGradient>
<linearGradient id="paint5_linear_25_1814" x1="2508.75" y1="-2405.04" x2="2502.54" y2="-2412.42" gradientUnits="userSpaceOnUse">
<stop stop-color="#FFC800"/>
<stop offset="1" stop-color="#E1AA00"/>
</linearGradient>
<linearGradient id="paint6_linear_25_1814" x1="2507.61" y1="-2203.28" x2="2501.4" y2="-2210.71" gradientUnits="userSpaceOnUse">
<stop stop-color="#FFC800"/>
<stop offset="1" stop-color="#E1AA00"/>
</linearGradient>
<linearGradient id="paint7_linear_25_1814" x1="2492.59" y1="-2433.9" x2="2486.38" y2="-2441.28" gradientUnits="userSpaceOnUse">
<stop stop-color="#FFC800"/>
<stop offset="1" stop-color="#E1AA00"/>
</linearGradient>
<linearGradient id="paint8_linear_25_1814" x1="2486.99" y1="-2168.75" x2="2480.8" y2="-2176.15" gradientUnits="userSpaceOnUse">
<stop stop-color="#FFC800"/>
<stop offset="1" stop-color="#E1AA00"/>
</linearGradient>
<linearGradient id="paint9_linear_25_1814" x1="2470.89" y1="-2458.82" x2="2464.72" y2="-2466.17" gradientUnits="userSpaceOnUse">
<stop stop-color="#FFC800"/>
<stop offset="1" stop-color="#E1AA00"/>
</linearGradient>
<linearGradient id="paint10_linear_25_1814" x1="2455.46" y1="-2145.13" x2="2449.25" y2="-2152.5" gradientUnits="userSpaceOnUse">
<stop stop-color="#FFC800"/>
<stop offset="1" stop-color="#E1AA00"/>
</linearGradient>
<linearGradient id="paint11_linear_25_1814" x1="2444.86" y1="-2487.56" x2="2438.64" y2="-2494.96" gradientUnits="userSpaceOnUse">
<stop stop-color="#FFC800"/>
<stop offset="1" stop-color="#E1AA00"/>
</linearGradient>
<linearGradient id="paint12_linear_25_1814" x1="2413.84" y1="-2497.93" x2="2407.68" y2="-2505.28" gradientUnits="userSpaceOnUse">
<stop stop-color="#FFC800"/>
<stop offset="1" stop-color="#E1AA00"/>
</linearGradient>
<linearGradient id="paint13_linear_25_1814" x1="2382.39" y1="-2513.32" x2="2376.19" y2="-2520.71" gradientUnits="userSpaceOnUse">
<stop stop-color="#FFC800"/>
<stop offset="1" stop-color="#E1AA00"/>
</linearGradient>
<linearGradient id="paint14_linear_25_1814" x1="2345.35" y1="-2518.48" x2="2339.15" y2="-2525.86" gradientUnits="userSpaceOnUse">
<stop stop-color="#FFC800"/>
<stop offset="1" stop-color="#E1AA00"/>
</linearGradient>
<linearGradient id="paint15_linear_25_1814" x1="2361.76" y1="-2524.66" x2="2355.5" y2="-2532.34" gradientUnits="userSpaceOnUse">
<stop stop-color="#FFC800"/>
<stop offset="1" stop-color="#E1AA00"/>
</linearGradient>
<linearGradient id="paint16_linear_25_1814" x1="2246.97" y1="-2523.11" x2="2240.73" y2="-2530.42" gradientUnits="userSpaceOnUse">
<stop stop-color="#FFC800"/>
<stop offset="1" stop-color="#E1AA00"/>
</linearGradient>
<linearGradient id="paint17_linear_25_1814" x1="2238.44" y1="-2501.67" x2="2232.24" y2="-2509.05" gradientUnits="userSpaceOnUse">
<stop stop-color="#FFC800"/>
<stop offset="1" stop-color="#E1AA00"/>
</linearGradient>
<linearGradient id="paint18_linear_25_1814" x1="2208.87" y1="-2492.64" x2="2202.66" y2="-2500.02" gradientUnits="userSpaceOnUse">
<stop stop-color="#FFC800"/>
<stop offset="1" stop-color="#E1AA00"/>
</linearGradient>
<linearGradient id="paint19_linear_25_1814" x1="2185.65" y1="-2473.5" x2="2179.48" y2="-2480.91" gradientUnits="userSpaceOnUse">
<stop stop-color="#FFC800"/>
<stop offset="1" stop-color="#E1AA00"/>
</linearGradient>
</defs>
</svg>
