<svg id="katman_1" data-name="katman 1" xmlns="http://www.w3.org/2000/svg" viewBox="0 0 1080 1080"><defs><style>.cls-1{fill:#ffc800;}.cls-2{fill:#e1aa00;}</style></defs><polygon class="cls-1" points="421.84 346.71 403.93 401.69 527.99 491.95 528.05 491.91 528.05 423.9 527.99 423.94 421.84 346.71"/><polygon class="cls-1" points="658.16 346.8 551.89 423.9 551.89 491.91 676.01 401.87 658.16 346.8"/><polygon class="cls-1" points="404.19 611.46 403.93 612.26 527.99 702.52 528.05 702.48 528.05 521.61 417.63 601.71 404.19 611.46"/><polygon class="cls-1" points="662.21 601.69 552.02 521.51 551.89 521.61 551.89 702.48 676.01 612.44 675.71 611.51 662.21 601.69"/><path class="cls-1" d="M802.73,429a283.56,283.56,0,0,0-48.08-76.71c-1.63-1.87-3.3-3.71-5-5.54-2.62-2.83-5.29-5.64-8-8.38a285,285,0,0,0-403.28,0c-2.71,2.71-5.34,5.48-7.93,8.27q-2.44,2.65-4.81,5.35a285.09,285.09,0,1,0,477.11,77ZM636.3,757.74,676,728.94,653,658l-87.46,63.45-13.67,9.91v46.38c-3.94.19-7.9.3-11.89.3s-8-.11-12-.3V731.37l-.09.06-13.74-10L427,658l-23.06,70.8,39.94,29.06C360.29,720.88,302,637.26,302,540a242,242,0,0,1,1.88-30l100.06,72.81,104.75-76L390.17,420.6l-13.74-10,5.26-16.16,14.34-44a238,238,0,0,1,287.88-.05l14.35,44.28,5.24,16.16-13.76,10L571.37,506.67,676,582.78l100.21-72.69A240.07,240.07,0,0,1,778.05,540C778.05,637.19,719.79,720.76,636.3,757.74Z"/><path class="cls-2" d="M540,267a273,273,0,1,1-193.08,80A271.3,271.3,0,0,1,540,267m0-15.08c-159.13,0-288.13,129-288.13,288.13S380.87,828.13,540,828.13,828.13,699.13,828.13,540,699.13,251.87,540,251.87Z"/><path class="cls-2" d="M672.83,719.13,636.3,757.74s30.59-13.07,50-30L676,728.94Z"/><path class="cls-2" d="M407.17,719.13l36.53,38.61s-30.59-13.07-50-30L404,728.94Z"/><path class="cls-2" d="M403.89,582.78,308.71,465.13s-3,11.35-4.88,44.84Z"/><path class="cls-2" d="M676.11,582.78l95.18-117.65s3,11.35,4.88,44.84Z"/><polygon class="cls-2" points="403.93 612.26 528.05 665.95 528.05 702.48 403.93 612.26"/><polygon class="cls-2" points="676.07 612.26 551.95 665.95 551.95 702.48 676.07 612.26"/><polygon class="cls-2" points="528.05 468.37 403.93 401.69 527.99 491.95 528.05 468.37"/><polygon class="cls-2" points="551.95 468.37 676.07 401.69 552.01 491.95 551.95 468.37"/></svg>