<?xml version="1.0" encoding="utf-8"?>
<!-- Generator: Adobe Illustrator 27.0.1, SVG Export Plug-In . SVG Version: 6.00 Build 0)  -->
<svg version="1.1" id="katman_1" xmlns="http://www.w3.org/2000/svg" xmlns:xlink="http://www.w3.org/1999/xlink" x="0px" y="0px"
	 viewBox="0 0 1080 1080" style="enable-background:new 0 0 1080 1080;" xml:space="preserve">
<style type="text/css">
	.st0{fill:#FFC800;}
	.st1{fill:#E1AA00;}
	.st2{fill:#ED4E33;}
	.st3{fill:#FFFFFF;}
</style>
<polygon class="st0" points="421.8,346.7 403.9,401.7 528,492 528,491.9 528,423.9 528,423.9 "/>
<polygon class="st0" points="658.2,346.8 551.9,423.9 551.9,491.9 676,401.9 "/>
<polygon class="st0" points="404.2,611.5 403.9,612.3 528,702.5 528,702.5 528,521.6 417.6,601.7 "/>
<polygon class="st0" points="662.2,601.7 552,521.5 551.9,521.6 551.9,702.5 676,612.4 675.7,611.5 "/>
<path class="st0" d="M802.7,429c-11.8-28-28-53.9-48.1-76.7c-1.6-1.9-3.3-3.7-5-5.5c-2.6-2.8-5.3-5.6-8-8.4
	C630.4,227,450,226.9,338.6,338.1c-0.1,0.1-0.2,0.2-0.2,0.2c-2.7,2.7-5.3,5.5-7.9,8.3c-1.6,1.8-3.2,3.5-4.8,5.4
	c-103.7,118.4-91.8,298.6,26.6,402.3s298.6,91.8,402.3-26.6C826.5,645.6,845.2,529.6,802.7,429L802.7,429z M636.3,757.7l39.7-28.8
	L653,658l-87.5,63.5l-13.7,9.9v46.4c-3.9,0.2-7.9,0.3-11.9,0.3s-8-0.1-12-0.3v-46.4l-0.1,0.1l-13.7-10L427,658l-23.1,70.8l39.9,29.1
	C360.3,720.9,302,637.3,302,540c0-10,0.6-20,1.9-30l100.1,72.8l104.8-76l-118.5-86.2l-13.7-10l5.3-16.2l14.3-44
	c85.1-64.6,202.8-64.6,287.9,0l14.3,44.3l5.2,16.2l-13.8,10l-118.4,85.8L676,582.8l100.2-72.7c1.2,9.9,1.9,19.9,1.8,29.9
	C778,637.2,719.8,720.8,636.3,757.7z"/>
<path class="st1" d="M540,267c150.8,0,273,122.2,273,273c0,150.8-122.2,273-273,273S267,690.8,267,540c0-72.4,28.7-141.8,79.9-193
	C398,295.6,467.5,266.8,540,267 M540,251.9c-159.1,0-288.1,129-288.1,288.1s129,288.1,288.1,288.1s288.1-129,288.1-288.1
	S699.1,251.9,540,251.9L540,251.9z"/>
<path class="st1" d="M672.8,719.1l-36.5,38.6c0,0,30.6-13.1,50-30l-10.3,1.2L672.8,719.1z"/>
<path class="st1" d="M407.2,719.1l36.5,38.6c0,0-30.6-13.1-50-30l10.3,1.2L407.2,719.1z"/>
<path class="st1" d="M403.9,582.8l-95.2-117.7c0,0-3,11.4-4.9,44.8L403.9,582.8z"/>
<path class="st1" d="M676.1,582.8l95.2-117.6c0,0,3,11.4,4.9,44.8L676.1,582.8z"/>
<polygon class="st1" points="403.9,612.3 528,666 528,702.5 "/>
<polygon class="st1" points="676.1,612.3 552,666 552,702.5 "/>
<polygon class="st1" points="528,468.4 403.9,401.7 528,492 "/>
<polygon class="st1" points="552,468.4 676.1,401.7 552,492 "/>
<circle class="st1" cx="684.1" cy="684.1" r="144.1"/>
<circle class="st2" cx="684.1" cy="684.1" r="118.2"/>
<path class="st3" d="M664.1,631.9c-31,12-33.9,42.6-42.8,56.9c-9,14.5-29.6,22.5-26.8,29.8c2.8,7.4,23.5-0.5,39.8,4.2
	c16.1,4.7,38.7,25.5,69.7,13.5c15.8-6.1,27.2-18.6,32.5-33.5c0.6-1.6-0.5-3.3-2.2-3.5c-1-0.1-2,0.5-2.5,1.4
	c-4.8,9.5-12.9,17.4-23.6,21.5c-17.6,6.8-36.9,1.5-48.8-11.9c-2.7-3-5-6.5-6.8-10.3c-0.5-1.1-1-2.1-1.4-3.2
	c-0.4-1.1-0.8-2.2-1.1-3.3c9.3-4.4,20.1-9,32.3-13.7c12-4.6,22.8-8.3,32.5-11.3c6.6-2,12.6-3.7,18-5.1c0.4-0.1,0.8-0.2,1.2-0.3
	c0.8-0.2,1.7,0.2,2,1l0,0c0.2,0.5,0.3,0.9,0.5,1.4c1.1,3,1.9,6.1,2.4,9.2c0.2,1.4,1.7,2.1,2.9,1.4c4.5-2.4,8.5-4.7,12.2-7
	c13.6-8.4,21.1-15.5,19.5-19.5c-1.5-4-11.9-4.3-27.5-1.4c-5,0.9-10.5,2.1-16.5,3.7c-1,0.3-2.1,0.5-3.1,0.8c-5,1.3-10.3,2.9-15.8,4.6
	c-10.2,3.2-21.2,7-32.5,11.4c-10.6,4.1-20.6,8.3-29.9,12.5c-0.1-17.9,10.7-34.9,28.3-41.7c10.7-4.1,22-3.8,31.9,0.1
	c1,0.4,2.1,0.1,2.8-0.7c1.1-1.2,0.8-3.2-0.7-4C696.8,627.4,679.9,625.8,664.1,631.9z"/>
</svg>
