<?xml version="1.0" encoding="utf-8"?>
<!-- Generator: Adobe Illustrator 24.0.1, SVG Export Plug-In . SVG Version: 6.00 Build 0)  -->
<svg version="1.1" id="e0d25ba7-2010-4449-8196-102f2e93f477"
	 xmlns="http://www.w3.org/2000/svg" xmlns:xlink="http://www.w3.org/1999/xlink" x="0px" y="0px" viewBox="0 0 348.2 84"
	 style="enable-background:new 0 0 348.2 84;" xml:space="preserve">
<style type="text/css">
	.st0{fill:#1D3561;}
	.st1{fill:#61C2E1;}
	.st2{fill:#09102A;}
</style>
<title>logo</title>
<g>
	<g>
		<path class="st0" d="M119.9,45.9h2.7l14.7-16.2H153l-17.1,18.9L154,74.9H139l-11.8-16.8h-7.3v16.8h-13.1V8h13.1V45.9z"/>
		<path class="st0" d="M177.7,28.3c6,0,14.6,0.7,25.7,2.2v44.4h-13.1v-3.2c-4,3.1-8.5,4.6-13.6,4.6c-6.4,0-11.6-2.2-15.7-6.6
			c-4-4.4-6-10.3-6-17.6c0.2-7.4,2.2-13.2,6.2-17.4S170.7,28.3,177.7,28.3z M179.7,39.2c-7.9,0-11.9,4.4-11.9,13.3
			c0,3.8,1,6.9,3,9.3c2,2.4,4.7,3.6,8,3.6c4,0,7.8-1.5,11.4-4.4V39.7C186.3,39.4,182.8,39.2,179.7,39.2z"/>
		<path class="st0" d="M229.6,8v66.9h-13.1V8H229.6z"/>
		<path class="st0" d="M262.1,28.3c6,0,14.6,0.7,25.7,2.2v44.4h-13.1v-3.2c-4,3.1-8.5,4.6-13.6,4.6c-6.4,0-11.6-2.2-15.7-6.6
			c-4-4.4-6-10.3-6-17.6c0.2-7.4,2.2-13.2,6.2-17.4C249.7,30.4,255.1,28.3,262.1,28.3z M264.2,39.2c-7.9,0-11.9,4.4-11.9,13.3
			c0,3.8,1,6.9,3,9.3c2,2.4,4.7,3.6,8,3.6c4,0,7.8-1.5,11.4-4.4V39.7C270.7,39.4,267.2,39.2,264.2,39.2z"/>
		<path class="st0" d="M322.8,27.8c7.6,0,13.7,2.2,18.4,6.7c4.7,4.5,7,10.3,7,17.5c0,7.3-2.3,13.2-7,17.8
			c-4.6,4.5-10.8,6.8-18.4,6.8s-13.8-2.3-18.5-6.8c-4.7-4.5-7-10.4-7-17.8c0-7.2,2.3-13.1,7-17.5C308.9,30,315.1,27.8,322.8,27.8z
			 M335.2,52c0-3.8-1.1-6.8-3.4-9.1c-2.3-2.3-5.3-3.4-9-3.4s-6.8,1.1-9.1,3.4c-2.3,2.3-3.5,5.3-3.5,9.1c0,3.8,1.2,7,3.5,9.3
			s5.4,3.6,9.1,3.6c3.7,0,6.7-1.2,9-3.6S335.2,55.8,335.2,52z"/>
	</g>
	<g>
		<g>
			<path class="st1" d="M80.5,60l-18-18l0,0l0,0L41.8,62.7l-0.1,0.1l18,18c4.4,4.4,14,4.1,19.5-1.4S84.9,64.3,80.5,60z"/>
			<path class="st1" d="M62.5,41.9l18-18c4.4-4.4,4.1-14-1.4-19.5C73.7-1.1,64-1.3,59.6,3l-18,18l0.1,0.1L62.5,41.9z"/>
			<path class="st0" d="M39,60.2L20.8,41.9l20.9-20.9l0,0l0.1,0.1L41.7,21L28.5,7.8c0,0-7-7.8-13.8-7.8C7,0,0,6.6,0,12.8v58.4
				C0,77.4,7,84,14.7,84c6.8,0,13.8-7.9,13.8-7.9l13.2-13.3l-0.1-0.1L39,60.2z"/>
		</g>
		<polygon class="st2" points="59.9,44.5 62.5,41.9 62.5,41.9 41.7,21.1 41.7,21 41.6,21.1 20.8,41.9 39,60.2 41.6,62.8 41.7,62.8 
			41.7,62.8 41.8,62.7 		"/>
	</g>
</g>
</svg>
