<svg id="App_Store" data-name="App Store" xmlns="http://www.w3.org/2000/svg" width="176.595" height="54" viewBox="0 0 176.595 54">
  <g id="Rectangle_213">
    <path id="Path_2493" data-name="Path 2493" d="M8.757,0H167.838A8.783,8.783,0,0,1,176.6,8.757V45.243A8.783,8.783,0,0,1,167.838,54H8.757A8.783,8.783,0,0,1,0,45.243V8.757A8.783,8.783,0,0,1,8.757,0Z" fill="#1c1c1c"/>
    <path id="Path_2494" data-name="Path 2494" d="M8.527.5H167.609a8.1,8.1,0,0,1,8.027,8.027V45.014a8.1,8.1,0,0,1-8.027,8.027H8.527A8.1,8.1,0,0,1,.5,45.014V8.527A8.1,8.1,0,0,1,8.527.5Z" transform="translate(0.23 0.23)" fill="none" stroke="#717171" stroke-width="1"/>
  </g>
  <text id="Download_on_the" data-name="Download on the" transform="translate(53 18)" fill="#707070" font-size="11" font-family="SegoeUI, Segoe UI"><tspan x="0" y="0">Download on the</tspan></text>
  <text id="AppStore" transform="translate(53 38)" fill="#707070" font-size="23" font-family="SegoeUI, Segoe UI"><tspan x="0" y="0">AppStore</tspan></text>
  <g id="icon" transform="translate(16.254 7.443)">
    <g id="Group_1405" data-name="Group 1405" transform="translate(0 0)">
      <path id="Fill-2_00000147184838171675919690000007649847011071602569_" d="M-98.338-68.987a7.307,7.307,0,0,1,3.357-5.838,7.384,7.384,0,0,0-5.546-3.065c-2.335-.292-4.67,1.459-5.838,1.459s-3.065-1.314-4.962-1.314a7.374,7.374,0,0,0-6.276,3.795c-2.627,4.67-.73,11.53,1.9,15.324,1.314,1.9,2.773,3.941,4.816,3.795,1.9-.146,2.627-1.168,4.962-1.168s3.065,1.168,4.962,1.168c2.043,0,3.357-1.9,4.67-3.795A13.118,13.118,0,0,0-94.252-63c-.146.146-4.087-1.459-4.087-5.984" transform="translate(118.863 85.187)" fill="#707070"/>
      <path id="Fill-3_00000032638582597693298120000002096721145238096569_" d="M-105.97-78.084a7.128,7.128,0,0,0,1.605-4.816,6.869,6.869,0,0,0-4.524,2.335,6.522,6.522,0,0,0-1.605,4.67,5.873,5.873,0,0,0,4.524-2.189" transform="translate(122.7 82.9)" fill="#707070"/>
    </g>
  </g>
</svg>
