<?xml version="1.0" encoding="utf-8"?>
<!-- Generator: Adobe Illustrator 25.4.1, SVG Export Plug-In . SVG Version: 6.00 Build 0)  -->
<svg version="1.1" id="Layer_1" xmlns="http://www.w3.org/2000/svg" xmlns:xlink="http://www.w3.org/1999/xlink" x="0px" y="0px"
	 viewBox="0 0 45 45" style="enable-background:new 0 0 45 45;" xml:space="preserve">
<style type="text/css">
	.st0{fill:#707070;}
</style>
<g>
	<path class="st0" d="M27.4,21.2c-1.5,0-2.8,1.3-2.8,2.9c0,1.5,1.3,2.9,2.8,2.9c1.5,0,2.7-1.3,2.7-2.8
		C30.1,22.5,28.9,21.2,27.4,21.2z"/>
	<path class="st0" d="M17.5,21.2c-1.5,0-2.7,1.3-2.8,2.8c0,1.6,1.2,2.9,2.7,2.9c1.5,0,2.8-1.3,2.8-2.9C20.3,22.5,19,21.2,17.5,21.2z
		"/>
	<path class="st0" d="M44.7,2.7c-0.2-0.5-0.5-1-0.9-1.4c-0.4-0.4-0.9-0.7-1.4-0.9S41.3,0,40.7,0H4.3c-1.1,0-2.2,0.5-3,1.3
		S0,3.1,0,4.3v36.4c0,1.1,0.5,2.2,1.3,3c0.8,0.8,1.9,1.3,3,1.3h36.4c1.1,0,2.2-0.5,3-1.3c0.8-0.8,1.3-1.9,1.3-3V4.3
		C45,3.7,44.9,3.2,44.7,2.7z M36.1,31.3c-1.8,1.2-3.7,1.7-5.8,1.8c-0.2,0-0.4,0-0.5-0.2c-0.5-0.6-1-1.2-1.5-1.9
		c1.8-0.6,3.5-1.4,4.6-2.9c-0.1,0.1-0.2,0.1-0.3,0.2c-2.3,1.3-4.6,2.3-7.3,2.6c-2.4,0.3-4.7,0.1-7-0.5c-2.1-0.5-4.1-1.2-6-2.1
		c0,0-0.1,0-0.2-0.1c1.1,1.5,2.7,2.3,4.5,2.9c-0.6,0.7-1.1,1.4-1.7,2.1c-0.1,0.1-0.2,0.1-0.3,0.1c-2.1,0-4.1-0.6-5.9-1.8
		c-1.5-1.1-2.1-2.6-1.9-4.4c0.3-3,1-5.9,2.1-8.7c1.4-3.8,5-6.4,9-6.6c0.2,0,0.4,0.1,0.5,0.2c-2.5,0.7-4.8,1.6-6.7,3.2
		c7.1-3.1,14.1-3.1,21.2,0.1c-0.9-0.8-1.9-1.4-3-1.8c-1.1-0.5-2.2-0.9-3.3-1.3c0.1-0.3,0.4-0.4,0.7-0.3c4.3,0.4,7.2,2.6,8.8,6.5
		c1.1,2.7,1.8,5.6,2.1,8.5C38.4,28.7,37.7,30.3,36.1,31.3z"/>
</g>
</svg>
