<?xml version="1.0" encoding="utf-8"?>
<!-- Generator: Adobe Illustrator 25.4.1, SVG Export Plug-In . SVG Version: 6.00 Build 0)  -->
<svg version="1.1" id="Layer_1" xmlns="http://www.w3.org/2000/svg" xmlns:xlink="http://www.w3.org/1999/xlink" x="0px" y="0px"
	 viewBox="0 0 45 45" style="enable-background:new 0 0 45 45;" xml:space="preserve">
<style type="text/css">
	.st0{fill:#707070;}
</style>
<path class="st0" d="M44.7,2.7c-0.2-0.5-0.5-1-0.9-1.4c-0.4-0.4-0.9-0.7-1.4-0.9S41.3,0,40.7,0H4.3c-1.1,0-2.2,0.5-3,1.3
	S0,3.1,0,4.3v36.4c0,1.1,0.5,2.2,1.3,3c0.8,0.8,1.9,1.3,3,1.3h36.4c1.1,0,2.2-0.5,3-1.3c0.8-0.8,1.3-1.9,1.3-3V4.3
	C45,3.7,44.9,3.2,44.7,2.7z M37.8,18.1c-0.1,1.6-0.3,3.1-0.9,4.5c-1.1,2.5-3,4.1-5.6,4.8c-1.2,0.3-2.3,0.5-3.5,0.8c0,0,0,0,0,0
	c1,1.1,1.4,2.4,1.4,3.8c0,2,0,3.9,0,5.9c0,0.6,0.1,1.1,0.8,1.4c-4.2,0-8.4,0.1-12.6,0.1c0.7-0.2,0.9-0.8,0.9-1.4c0-1.1,0-2.2,0-3.4
	c-0.6,0.1-1,0.1-1.5,0.2c-1.5,0.1-3-0.1-4.3-1c-0.8-0.6-1.4-1.3-1.8-2.2c-0.6-1.4-1.3-2.6-2.7-3.4c-0.2-0.1-0.4-0.3-0.6-0.5
	c-0.3-0.3-0.2-0.5,0.2-0.7c0.5-0.2,1-0.1,1.6,0.1c1.1,0.4,1.9,1.1,2.6,2.1c0.6,1,1.4,1.8,2.6,2.2c1.3,0.4,2.5,0.2,3.7-0.3
	c0.1,0,0.2-0.1,0.2-0.2c0.2-1.1,0.6-2,1.4-2.8c-0.8-0.1-1.5-0.2-2.2-0.4c-1.8-0.4-3.4-1-4.8-2.2c-1.8-1.5-2.6-3.5-2.9-5.7
	c-0.2-1.6-0.3-3.2,0.1-4.8c0.3-1.3,0.9-2.5,1.8-3.5c0.1-0.2,0.2-0.3,0.1-0.5c-0.6-1.8-0.4-3.6,0.2-5.4c0-0.1,0.2-0.2,0.3-0.2
	c0.6,0,1.2,0.1,1.7,0.2c1.4,0.4,2.7,1.1,3.9,1.9c0.2,0.1,0.4,0.1,0.6,0.1c3.5-0.9,7-0.9,10.5,0c0.3,0.1,0.6,0,0.9-0.2
	C31,6.7,32.4,6,34,5.6c1.2-0.2,1.3-0.2,1.7,1c0.4,1.5,0.4,3,0,4.5c0,0.1,0,0.3,0.1,0.4C37.3,13.5,38,15.7,37.8,18.1z"/>
</svg>
