<svg xmlns="http://www.w3.org/2000/svg" width="21" height="21" viewBox="0 0 21 21">
  <path id="Medium" d="M19.029.032H2.035a2,2,0,0,0-2,2V19.029a2,2,0,0,0,2,2H19.029a2,2,0,0,0,2-2V2.035A2,2,0,0,0,19.029.032ZM17.4,15.5c.348.373.728.715,1.083,1.082a1.585,1.585,0,0,1,.193.392H12.167a1.8,1.8,0,0,1,.217-.4c.36-.371.749-.717,1.107-1.092a.674.674,0,0,0,.178-.42q.011-3.542.007-7.086c0-.048-.007-.094-.015-.219-.067.153-.109.241-.145.332q-1.708,4.318-3.409,8.639c-.051.129-.1.247-.271.23s-.317.012-.421-.214q-2-4.358-4-8.716a.648.648,0,0,0-.161-.232V8c0,2-.009,4,.007,5.991a1.069,1.069,0,0,0,.222.6c.517.662,1.067,1.3,1.593,1.954a1.668,1.668,0,0,1,.166.4H2.3a1.718,1.718,0,0,1,.17-.4c.522-.647,1.068-1.279,1.579-1.935a1.062,1.062,0,0,0,.224-.6c.006-2.406,0-4.81,0-7.215a1,1,0,0,0-.249-.693c-.46-.534-.907-1.08-1.348-1.628a1.937,1.937,0,0,1-.184-.421h.346c1.393,0,2.786.011,4.18,0a.345.345,0,0,1,.373.248q1.7,3.744,3.413,7.478c.031.076.069.15.125.267.05-.12.09-.206.124-.294q1.505-3.718,2.989-7.44a.347.347,0,0,1,.389-.258h4.3a1.876,1.876,0,0,1-.221.415c-.36.362-.743.692-1.1,1.066a.707.707,0,0,0-.193.438q-.014,4.538,0,9.075A.715.715,0,0,0,17.4,15.5Z" transform="translate(-0.032 -0.032)" fill="#707070"/>
</svg>
