<svg id="Play_Store" data-name="Play Store" xmlns="http://www.w3.org/2000/svg" width="176.595" height="54" viewBox="0 0 176.595 54">
  <path id="Path_2491" data-name="Path 2491" d="M8.757,0H167.839A8.783,8.783,0,0,1,176.6,8.757V45.243A8.783,8.783,0,0,1,167.839,54H8.757A8.783,8.783,0,0,1,0,45.243V8.757A8.783,8.783,0,0,1,8.757,0Z" fill="#1c1c1c"/>
  <path id="Path_2492" data-name="Path 2492" d="M8.527.5H167.609a8.1,8.1,0,0,1,8.027,8.027V45.014a8.1,8.1,0,0,1-8.027,8.027H8.527A8.1,8.1,0,0,1,.5,45.014V8.527A8.1,8.1,0,0,1,8.527.5Z" transform="translate(0.23 0.23)" fill="none" stroke="#717171" stroke-width="1"/>
  <text id="GET_IT_ON" data-name="GET IT ON" transform="translate(51 18)" fill="#707070" font-size="10" font-family="SegoeUI, Segoe UI"><tspan x="0" y="0">GET IT ON</tspan></text>
  <text id="GooglePlay" transform="translate(51 40)" fill="#707070" font-size="20" font-family="SegoeUI, Segoe UI"><tspan x="0" y="0">GooglePlay</tspan></text>
  <path id="path13-6" d="M26.676,24.222l5.108-5.108L10.476,7.292A2.074,2.074,0,0,0,9.6,7Z" transform="translate(4.411 3.216)" fill="#707070"/>
  <path id="path15" d="M26.954,26.208l6.422-3.5c1.751-1.022,1.751-2.627,0-3.5L27.1,15.7l-5.4,5.4,5.254,5.108Z" transform="translate(9.97 7.214)" fill="#707070"/>
  <path id="path17-8" d="M9.022,7.1A2.18,2.18,0,0,0,8,9.143V40.376a2.636,2.636,0,0,0,1.022,2.189l17.66-17.66Z" transform="translate(3.676 3.262)" fill="#707070"/>
  <path id="path19-3" d="M26.676,19.8,9.6,36.876a2.074,2.074,0,0,0,.876-.292L31.492,24.908,26.676,19.8Z" transform="translate(4.411 9.097)" fill="#707070"/>
</svg>
