<?xml version="1.0" encoding="utf-8"?>
<!-- Generator: Adobe Illustrator 25.4.1, SVG Export Plug-In . SVG Version: 6.00 Build 0)  -->
<svg version="1.1" id="Layer_1" xmlns="http://www.w3.org/2000/svg" xmlns:xlink="http://www.w3.org/1999/xlink" x="0px" y="0px"
	 viewBox="0 0 45 45" style="enable-background:new 0 0 45 45;" xml:space="preserve">
<style type="text/css">
	.st0{fill:#707070;}
</style>
<path class="st0" d="M44.7,2.7c-0.2-0.5-0.5-1-0.9-1.4c-0.4-0.4-0.9-0.7-1.4-0.9S41.3,0,40.7,0H4.3c-1.1,0-2.2,0.5-3,1.3
	S0,3.1,0,4.3v36.4c0,1.1,0.5,2.2,1.3,3c0.8,0.8,1.9,1.3,3,1.3h36.4c1.1,0,2.2-0.5,3-1.3c0.8-0.8,1.3-1.9,1.3-3V4.3
	C45,3.7,44.9,3.2,44.7,2.7z M8.8,7.2c0-0.3,0-0.3,0.3-0.3c8.3,0,16.6,0,24.9,0c0.6,0,1.3,0,1.9,0c0.2,0,0.3,0,0.3,0.3c0,1,0,2,0,3.1
	c0,0.3-0.1,0.3-0.3,0.3c-1.9,0-3.8,0-5.8,0c-2.5,0-5.1,0-7.6,0c-4.5,0-8.9,0-13.4,0c-0.3,0-0.3-0.1-0.3-0.3C8.8,9.2,8.8,8.2,8.8,7.2
	z M36.2,38.1c-0.7-0.4-1.4-0.8-2.1-1.2c-3.8-2.1-7.6-4.2-11.4-6.4c-0.2-0.1-0.3-0.1-0.5,0c-4.4,2.5-8.8,4.9-13.2,7.4
	C9,38,8.9,38,8.8,38.1c0-0.1,0-0.2,0-0.3c0-5.5,0-10.9,0-16.4c0-0.3,0-0.3,0.4-0.3c8.9,0,17.8,0,26.7,0c0.4,0,0.4,0,0.4,0.3
	c0,5.5,0,10.9,0,16.4C36.2,37.9,36.2,38,36.2,38.1z M35.9,17.6c-3.8,0-7.6,0-11.4,0c-5.1,0-10.2,0-15.4,0c-0.4,0-0.4,0-0.4-0.4
	c0-1,0-2,0-2.9C8.8,14,8.9,14,9.1,14c4.5,0,8.9,0,13.4,0c4.4,0,8.9,0,13.3,0c0.4,0,0.4,0,0.4,0.4c0,1,0,2,0,2.9
	C36.2,17.5,36.1,17.6,35.9,17.6z"/>
</svg>
