<svg xmlns="http://www.w3.org/2000/svg" width="21" height="21" viewBox="0 0 21 21">
  <path id="Telegram" d="M19.029.032H2.035a2,2,0,0,0-2,2V19.029a2,2,0,0,0,2,2H19.029a2,2,0,0,0,2-2V2.035A2,2,0,0,0,19.029.032ZM18.023,5.37c-.26,1.278-.541,2.553-.806,3.829q-.729,3.415-1.454,6.829c-.191.9-.7,1.1-1.439.556l-3.088-2.275c-.073-.055-.148-.105-.234-.166L9.277,15.805a.8.8,0,0,1-.647.279c.024-.383.045-.761.07-1.139.05-.734.094-1.465.163-2.2a.656.656,0,0,1,.216-.374q2.934-2.65,5.872-5.31a4.241,4.241,0,0,0,.318-.3,1.268,1.268,0,0,0,.141-.241.951.951,0,0,0-.323-.029,1.588,1.588,0,0,0-.382.2q-3.766,2.363-7.52,4.742a.621.621,0,0,1-.58.072c-1.02-.328-2.04-.641-3.059-.964-.265-.085-.6-.166-.607-.495s.293-.464.553-.566c1.12-.445,2.244-.874,3.367-1.307l9.957-3.842c.334-.129.674-.286,1-.011A.977.977,0,0,1,18.023,5.37Z" transform="translate(-0.032 -0.032)" fill="#707070"/>
</svg>
