<svg width="45" height="45" viewBox="0 0 45 45" fill="none" xmlns="http://www.w3.org/2000/svg">
<path d="M40.7131 0H4.28694C3.14997 0 2.05957 0.451594 1.25562 1.25544C0.451658 2.05928 0 3.14952 0 4.28633V40.7137C0 41.8505 0.451658 42.9407 1.25562 43.7446C2.05957 44.5484 3.14997 45 4.28694 45H40.7131C41.85 45 42.9404 44.5484 43.7444 43.7446C44.5483 42.9407 45 41.8505 45 40.7137V4.29276C45.0008 3.72933 44.8906 3.17126 44.6755 2.65048C44.4605 2.12969 44.1448 1.65641 43.7467 1.25771C43.3485 0.859005 42.8756 0.542701 42.3551 0.326891C41.8346 0.111081 41.2766 -6.33856e-07 40.7131 0V0ZM38.5567 11.4402C37.9994 14.1792 37.3971 16.9117 36.8291 19.6464C35.7874 24.5256 34.7485 29.4042 33.7125 34.282C33.3031 36.2109 32.2121 36.6395 30.628 35.4736L24.009 30.5979C23.8525 30.4801 23.6918 30.3729 23.5074 30.2422L19.8099 33.8041C19.6398 34.003 19.4263 34.1603 19.1859 34.264C18.9455 34.3676 18.6846 34.4148 18.4231 34.4021C18.4746 33.5812 18.5196 32.7711 18.5732 31.961C18.6803 30.3879 18.7746 28.8213 18.9225 27.246C18.982 26.9343 19.1451 26.6518 19.3855 26.4445C23.5782 22.6582 27.7736 18.8648 31.972 15.0643C32.2101 14.8618 32.4376 14.6472 32.6536 14.4213C32.7731 14.2608 32.8744 14.0876 32.9558 13.9048C32.7303 13.8446 32.4961 13.8236 32.2635 13.8427C31.9723 13.9477 31.6969 14.0919 31.4447 14.2713C26.0632 17.6475 20.6902 21.0351 15.3258 24.4342C15.1472 24.56 14.9403 24.6398 14.7235 24.6667C14.5067 24.6936 14.2866 24.6668 14.0826 24.5885C11.8963 23.8856 9.70992 23.2147 7.52572 22.5225C6.9577 22.3403 6.23964 22.1667 6.22463 21.4616C6.20963 20.7565 6.85267 20.4672 7.40997 20.2486C9.81066 19.2949 12.2199 18.3755 14.627 17.4475L35.9696 9.21346C36.6855 8.93699 37.4143 8.60052 38.113 9.18989C38.3979 9.48115 38.5916 9.84919 38.6705 10.2489C38.7493 10.6486 38.7097 11.0626 38.5567 11.4402Z" fill="#707070"/>
</svg>
