<svg xmlns="http://www.w3.org/2000/svg" width="20.998" height="20.998" viewBox="0 0 20.998 20.998">
  <path id="Twitter" d="M19.027.032H2.035a2,2,0,0,0-2,2V19.027a2,2,0,0,0,2,2H19.027a2,2,0,0,0,2-2V2.035A2,2,0,0,0,19.027.032ZM16.281,7.471a.826.826,0,0,0-.345.723,7.7,7.7,0,0,1-4.413,7.047,7.728,7.728,0,0,1-7.6-.345c-.026-.015-.052-.035-.141-.1a5.723,5.723,0,0,0,4.083-1.155,2.882,2.882,0,0,1-2-.93A2.649,2.649,0,0,1,5.286,11.7H6.421l.009-.057A2.842,2.842,0,0,1,4.29,8.934l1.173.327L5.5,9.2A2.79,2.79,0,0,1,4.33,7,2.611,2.611,0,0,1,4.7,5.523a7.957,7.957,0,0,0,5.691,2.9,7.572,7.572,0,0,1,0-.929,2.651,2.651,0,0,1,1.778-2.306,2.66,2.66,0,0,1,2.859.546.356.356,0,0,0,.4.1l1.5-.543A2.817,2.817,0,0,1,15.814,6.7l.028.057,1.438-.386A4.2,4.2,0,0,1,16.281,7.471Z" transform="translate(-0.032 -0.032)" fill="#707070"/>
</svg>
