<svg xmlns="http://www.w3.org/2000/svg" width="21" height="21" viewBox="0 0 21 21">
  <g id="Youtube" transform="translate(-0.032 -0.032)">
    <path id="Path_2465" data-name="Path 2465" d="M8.65,13.354,13.2,10.537,8.65,7.727Z" transform="translate(0.013 0.012)" fill="#707070"/>
    <path id="Path_2466" data-name="Path 2466" d="M19.029.032H2.035a2,2,0,0,0-2,2V19.029a2,2,0,0,0,2,2H19.029a2,2,0,0,0,2-2V2.035A2,2,0,0,0,19.029.032ZM15.087,15.639H10.5q-2.249,0-4.5,0a2.782,2.782,0,0,1-.33,0A2.679,2.679,0,0,1,3.159,12.8V8.208c0-.089-.005-.178,0-.267a2.677,2.677,0,0,1,2.8-2.548h9.124c.083,0,.167,0,.25,0a2.673,2.673,0,0,1,2.543,2.8V12.84q.006.125,0,.249A2.672,2.672,0,0,1,15.087,15.639Z" fill="#707070"/>
  </g>
</svg>
