<svg xmlns="http://www.w3.org/2000/svg" width="21" height="19.421" viewBox="0 0 21 19.421">
  <g id="Analytics" transform="translate(-34.934 1014.056)">
    <path id="Path_209" data-name="Path 209" d="M55.931-1001.787H34.943v-.237q0-5.541,0-11.081a.843.843,0,0,1,.942-.951H55.013a.836.836,0,0,1,.928.923q0,5.573,0,11.145C55.941-1001.925,55.935-1001.863,55.931-1001.787Zm-9.2-9.231-3.434,3.436-2.1-2.12-3.323,3.329.436.426,2.969-2.974,2.162,2.17,3.347-3.447,1.9,1.907,3.275-3.277.694.8.406-2.255-2.233.349-.034.073.657.6-2.85,2.851Zm5.6,8.2v-6.428H51.151v6.428Zm-4.235-.008h1.2v-4.126h-1.2Zm-3.033-3.926v3.924h1.173v-3.924Zm-1.914,1.421h-1.2v2.506h1.2Zm-4.235.5v2h1.182v-2Z" transform="translate(-0.008)" fill="#707070"/>
    <path id="Path_210" data-name="Path 210" d="M34.935-783.157H55.92c0,.068.012.13.012.191,0,.633,0,1.267,0,1.9a.84.84,0,0,1-.916.917q-9.585,0-19.169,0a.838.838,0,0,1-.912-.921C34.933-781.758,34.935-782.447,34.935-783.157Zm11.194,1.484a.689.689,0,0,0-.693-.708.688.688,0,0,0-.7.684.681.681,0,0,0,.682.714A.681.681,0,0,0,46.129-781.673Z" transform="translate(0 -217.728)" fill="#707070"/>
    <path id="Path_211" data-name="Path 211" d="M164.39-712.733h-2.815a.45.45,0,0,1-.19-.007.712.712,0,0,1-.288-.209.27.27,0,0,1,.091-.36,4.188,4.188,0,0,0,1.3-1.684.208.208,0,0,1,.159-.1q1.717-.008,3.433,0a.23.23,0,0,1,.167.115,4.144,4.144,0,0,0,1.3,1.633.32.32,0,0,1,.135.391.329.329,0,0,1-.353.217Q165.861-712.736,164.39-712.733Z" transform="translate(-118.932 -281.909)" fill="#707070"/>
  </g>
</svg>
