<svg xmlns="http://www.w3.org/2000/svg" width="21" height="19.717" viewBox="0 0 21 19.717">
  <g id="Audits" transform="translate(126 -147)">
    <path id="Path_221" data-name="Path 221" d="M-1055.894,263.075v-17.8l.916.949.948-.946.911.9.909-.908.916.9.91-.9.923.912.914-.91.905.9.944-.928.923.926.915-.915.928.917.863-.868V251a4.254,4.254,0,0,0-3.933,4.031,4.129,4.129,0,0,0,.909,2.8,4.206,4.206,0,0,0,3.022,1.6v2.043h-8.492c0,.1,0,.179,0,.259,0,.417.011.835-.019,1.25a2.154,2.154,0,0,1-1.9,1.969,2.179,2.179,0,0,1-2.317-1.529C-1055.837,263.313-1055.864,263.193-1055.894,263.075Zm2.52-12.027h7.8v-.782h-7.8Zm5.49,2.45v-.784h-5.49v.784Zm-.141,4.113h-5.345v.9h5.345Zm-.708-2.458h-4.639V256h4.639Z" transform="translate(929.894 -98.253)" fill="#707070"/>
    <path id="Path_222" data-name="Path 222" d="M-990.633,551.462a3.1,3.1,0,0,0,1.117-3.11h11.581a13.244,13.244,0,0,1-.106,1.829,1.667,1.667,0,0,1-1.732,1.28q-4.224,0-8.447,0h-2.412Z" transform="translate(868.209 -384.746)" fill="#707070"/>
    <path id="Path_223" data-name="Path 223" d="M-879.835,363.2l1.124,1.124.264-.356c.073.058.112.083.144.115l2.915,2.914a1.021,1.021,0,0,1,.28,1.125,1.03,1.03,0,0,1-1.693.4c-.445-.424-.873-.867-1.308-1.3l-1.595-1.6c-.052-.052-.1-.107-.189-.2l.369-.27-1.128-1.126a3.863,3.863,0,0,1-5.4-.854,3.838,3.838,0,0,1,.486-5.055,3.833,3.833,0,0,1,5.076-.155A3.845,3.845,0,0,1-879.835,363.2Zm-3.1.63a2.919,2.919,0,0,0,2.914-2.905,2.917,2.917,0,0,0-2.908-2.911,2.907,2.907,0,0,0-2.909,2.9A2.909,2.909,0,0,0-882.938,363.825Z" transform="translate(770.042 -203.948)" fill="#707070"/>
    <path id="Path_224" data-name="Path 224" d="M-840.383,385.755h.543c.011.02.023.032.022.042-.035.229.071.318.29.388a1.11,1.11,0,0,1,.8,1.046l-.537.033c-.124-.38-.217-.481-.544-.575,0,.36,0,.711.005,1.061,0,.033.065.077.109.1.119.05.246.082.364.134a.9.9,0,0,1,.593.812.984.984,0,0,1-.446.931.922.922,0,0,1-.308.156c-.233.048-.4.129-.315.418h-.552l-.018-.336a1.241,1.241,0,0,1-1.073-1.138l.529-.031c.144.385.232.477.55.564,0-.351,0-.695,0-1.039,0-.034-.064-.078-.108-.1-.094-.04-.2-.061-.29-.1a.936.936,0,0,1-.671-.885,1.01,1.01,0,0,1,.6-.988.584.584,0,0,1,.169-.073C-840.443,386.138-840.288,386.047-840.383,385.755Zm.591,2.663v.948a.519.519,0,0,0,.494-.463C-839.285,388.676-839.427,388.533-839.792,388.418Zm-.587-1.717a.513.513,0,0,0-.507.463c-.009.232.2.426.507.462Z" transform="translate(727.198 -231.057)" fill="#707070"/>
  </g>
</svg>
