<svg xmlns="http://www.w3.org/2000/svg" width="21" height="21.005" viewBox="0 0 21 21.005">
  <g id="Governance" transform="translate(543.257 354.344)">
    <path id="Path_212" data-name="Path 212" d="M-529.23-333.339h-1.723c.006-.081.018-.162.018-.243q0-2.654,0-5.309c0-.4.012-.807-.012-1.209a1.827,1.827,0,0,0-2.584-1.548,1.82,1.82,0,0,0-1.091,1.794q.005,3.156,0,6.313c0,.067.012.135.018.2h-1.682c.006-.074.018-.148.018-.223q0-2.192,0-4.385c0-.451.013-.9-.015-1.352a1.832,1.832,0,0,0-2.165-1.651,1.841,1.841,0,0,0-1.506,1.9c0,1.844,0,3.688,0,5.532,0,.061.011.121.017.182h-2.01a.794.794,0,0,1-.457-.827c.011-2.571.006-5.141.006-7.712v-.25h.273q2.83,0,5.66,0a1.584,1.584,0,0,0,.346-.029.672.672,0,0,0,.5-.8.692.692,0,0,0-.756-.551h-6.886c0-.455,0-.891,0-1.326a.663.663,0,0,1,.53-.766q4.58-1.72,9.161-3.435a.255.255,0,0,0,.2-.292c-.009-.725,0-1.449,0-2.174s0-1.477,0-2.215a.608.608,0,0,1,.462-.6.583.583,0,0,1,.668.276.222.222,0,0,0,.232.113q1.569,0,3.138,0a.626.626,0,0,1,.711.7q0,.933,0,1.867a.63.63,0,0,1-.718.714h-3.264c0,.464.008.9,0,1.337a.24.24,0,0,0,.193.274q4.573,1.709,9.143,3.426a.838.838,0,0,1,.554.5v1.6l-6.787.005a2.275,2.275,0,0,0-.246,0,.692.692,0,0,0-.623.609.673.673,0,0,0,.44.711,1.316,1.316,0,0,0,.4.052q2.85,0,5.7,0h.251v.272c0,2.564-.005,5.127.006,7.691a.792.792,0,0,1-.456.827h-2.01c.006-.088.017-.176.017-.264q0-2.664,0-5.327c0-.123,0-.246-.011-.368a1.84,1.84,0,0,0-2.168-1.651,1.847,1.847,0,0,0-1.506,1.917q0,2.746,0,5.491C-529.247-333.473-529.236-333.406-529.23-333.339Zm-3.524-14.907a1.845,1.845,0,0,0-1.848,1.829,1.85,1.85,0,0,0,1.841,1.858,1.85,1.85,0,0,0,1.848-1.831A1.844,1.844,0,0,0-532.754-348.245Z" fill="#707070"/>
    <path id="Path_213" data-name="Path 213" d="M-363.605-95.982c.006-.088.017-.176.017-.264q0-3.1,0-6.192c0-.5.221-.781.607-.789s.628.286.628.789q0,3.1,0,6.192c0,.088.011.176.017.264Z" transform="translate(-169.808 -237.357)" fill="#707070"/>
    <path id="Path_214" data-name="Path 214" d="M-460.916-81.513c.006-.088.018-.176.018-.264q0-2.715,0-5.431c0-.439.241-.712.617-.712a.6.6,0,0,1,.6.508,1.787,1.787,0,0,1,.015.286q0,2.674,0,5.349c0,.088.011.176.017.264Z" transform="translate(-77.829 -251.826)" fill="#707070"/>
    <path id="Path_215" data-name="Path 215" d="M-265.545-81.513c.006-.088.017-.176.017-.264q0-2.715,0-5.431c0-.438.241-.712.617-.712a.6.6,0,0,1,.6.508,1.813,1.813,0,0,1,.015.286q0,2.674,0,5.349c0,.088.012.176.018.264Z" transform="translate(-262.495 -251.826)" fill="#707070"/>
    <path id="Path_216" data-name="Path 216" d="M-368.966-225.69a1.013,1.013,0,0,1-1.022-.979,1,1,0,0,1,.973-1.024,1,1,0,0,1,1.039.992A1.011,1.011,0,0,1-368.966-225.69Z" transform="translate(-163.775 -119.711)" fill="#707070"/>
  </g>
</svg>
