<svg width="40" height="45" viewBox="0 0 40 45" fill="none" xmlns="http://www.w3.org/2000/svg">
<path d="M20.1281 0C20.2283 0.0518555 20.3259 0.108105 20.4278 0.155566C21.123 0.484277 21.5317 1.02305 21.5467 1.79737C21.5686 2.90831 21.5713 4.02012 21.5467 5.13018C21.5457 5.37208 21.4966 5.61138 21.4024 5.83418C21.3082 6.05698 21.1707 6.25886 20.9978 6.42811C20.825 6.59735 20.6203 6.73059 20.3955 6.8201C20.1708 6.9096 19.9305 6.9536 19.6887 6.94952C19.4468 6.95336 19.2067 6.90924 18.982 6.81973C18.7573 6.73021 18.5526 6.59707 18.3797 6.42799C18.2068 6.25891 18.0691 6.05724 17.9745 5.83464C17.88 5.61203 17.8305 5.3729 17.8289 5.13106C17.8078 4.07637 17.8166 3.02608 17.8236 1.97403C17.8289 1.0292 18.2323 0.45 19.1103 0.0896476C19.159 0.0647952 19.2052 0.0353656 19.2483 0.00175685L20.1281 0Z" fill="#707070"/>
<path d="M19.2495 45C19.1501 44.9473 19.0526 44.8919 18.9506 44.8436C18.2572 44.514 17.8467 43.977 17.8318 43.2009C17.8113 42.0912 17.8113 40.9802 17.8318 39.8681C17.8424 39.382 18.0429 38.9193 18.3904 38.5793C18.738 38.2392 19.2049 38.0488 19.6911 38.0488C20.1774 38.0488 20.6443 38.2392 20.9918 38.5793C21.3393 38.9193 21.5399 39.382 21.5504 39.8681C21.5742 40.9228 21.5566 41.9731 21.5592 43.026C21.5592 43.9515 21.1277 44.5755 20.2672 44.9095C20.2185 44.9338 20.1725 44.9632 20.1301 44.9974L19.2495 45Z" fill="#707070"/>
<path d="M19.6883 36.5626C11.9337 36.5626 5.63276 30.2643 5.62573 22.5097C5.62573 14.7367 11.9416 8.42259 19.712 8.43753C27.4824 8.45247 33.7578 14.7525 33.7508 22.5115C33.7437 30.2705 27.4464 36.5626 19.6883 36.5626Z" fill="#707070"/>
<path d="M1.90828 10.4906C2.19744 10.5838 2.50155 10.6453 2.77225 10.7754C3.64149 11.1937 4.50282 11.6297 5.35975 12.0744C6.37225 12.6017 6.74755 13.6766 6.26854 14.6276C5.78954 15.5786 4.68651 15.9258 3.67665 15.4257C2.77225 14.9792 1.86698 14.5318 0.979279 14.0537C0.605158 13.8587 0.31036 13.5398 0.145248 13.1515C-0.0198645 12.7633 -0.0450463 12.3297 0.0740041 11.925C0.307793 11.0918 1.03553 10.5389 1.90828 10.4906Z" fill="#707070"/>
<path d="M1.98984 34.4531C1.03271 34.4479 0.313765 33.9021 0.0799761 33.0935C-0.153813 32.2849 0.144137 31.4165 0.888572 31.0043C1.88525 30.4541 2.90127 29.9312 3.94102 29.4653C4.80586 29.0769 5.82012 29.5049 6.25694 30.3495C6.69375 31.1942 6.47754 32.2532 5.67422 32.7226C4.64063 33.3246 3.54814 33.8274 2.47236 34.3556C2.2957 34.4391 2.07598 34.4382 1.98984 34.4531Z" fill="#707070"/>
<path d="M34.8059 15.6841C34.3979 15.6788 34.002 15.5447 33.6749 15.3008C33.3478 15.0568 33.1062 14.7157 32.9848 14.3262C32.7449 13.5123 33.0639 12.6132 33.8154 12.2019C34.7901 11.6692 35.7815 11.1639 36.7896 10.6989C37.6685 10.2911 38.7047 10.6884 39.1565 11.5409C39.6082 12.3935 39.3674 13.493 38.5281 13.9711C37.5252 14.5424 36.4776 15.0337 35.4405 15.5417C35.2506 15.6314 35.0177 15.6375 34.8059 15.6841Z" fill="#707070"/>
<path d="M34.8058 29.3028C35.0572 29.3714 35.3261 29.403 35.5564 29.5146C36.5162 29.9796 37.4759 30.4489 38.4155 30.9551C38.7945 31.1574 39.0899 31.487 39.2495 31.8858C39.4092 32.2845 39.4229 32.7269 39.2882 33.1348C39.1656 33.5377 38.9097 33.8868 38.5625 34.1251C38.2153 34.3634 37.7975 34.4766 37.3775 34.4462C37.1444 34.4299 36.9164 34.3703 36.7051 34.2704C35.7586 33.8098 34.8146 33.344 33.8856 32.8492C33.5127 32.652 33.2187 32.333 33.0524 31.9454C32.886 31.5577 32.8575 31.1248 32.9715 30.7187C33.1842 29.9057 33.9375 29.338 34.8058 29.3028Z" fill="#707070"/>
</svg>
