<svg xmlns="http://www.w3.org/2000/svg" width="21" height="21" fill="none" viewBox="0 0 21 21">
  <path fill="#707070" d="M5.377 21c-.811-.6-1.624-1.2-2.433-1.8-.86-.641-1.713-1.291-2.577-1.927A.827.827 0 0 1 0 16.544C.005 11.284.005 6.021 0 .76V.636A.608.608 0 0 1 .339.07a.6.6 0 0 1 .672.077l2.853 2.139c.645.483 1.286.972 1.937 1.447a.808.808 0 0 1 .354.713c-.005 5.24-.005 10.482 0 15.723a.8.8 0 0 1-.456.829L5.377 21Zm-1.066-9.883a.617.617 0 0 0-.615.612.618.618 0 0 0 .612.615.62.62 0 0 0 .616-.612.62.62 0 0 0-.613-.615Z"/>
  <path fill="#707070" d="M2.888 0h9.9c.522 0 .748.227.748.75v6.059h-3.013a1.835 1.835 0 0 0-1.845 1.392 1.61 1.61 0 0 0-.06.4c-.006.444-.021.89 0 1.332a1.838 1.838 0 0 0 1.91 1.791c.977.005 1.955 0 2.932 0 .013 0 .027 0 .074.01v4.822c0 .512-.227.743-.732.744h-5.42V4.464a2.01 2.01 0 0 0-.865-1.735C5.361 1.88 4.217 1.01 3.072.15 3.028.12 2.98.076 2.888 0Z"/>
  <path fill="#707070" d="M17 10.5h-6.421a.638.638 0 0 1-.731-.724v-.984c0-.525.225-.752.745-.752H17v-.567a.616.616 0 0 1 .354-.6.609.609 0 0 1 .672.091c.787.59 1.576 1.178 2.359 1.773a.613.613 0 0 1 .006 1.061c-.79.6-1.583 1.191-2.377 1.785a.6.6 0 0 1-.673.077.612.612 0 0 1-.342-.585c-.002-.184 0-.367 0-.575Z"/>
</svg>
