<svg xmlns="http://www.w3.org/2000/svg" width="21" height="21.001" viewBox="0 0 21 21.001">
  <g id="Partners" transform="translate(1882.277 1425.13)">
    <path id="Path_2508" data-name="Path 2508" d="M-1882.277-1417.466c.034-.137.062-.276.1-.411a3.089,3.089,0,0,1,2.551-2.259.361.361,0,0,0,.119-.042,2.533,2.533,0,0,1-1.677-1.057,2.362,2.362,0,0,1-.381-1.931,2.464,2.464,0,0,1,2.6-1.923,2.477,2.477,0,0,1,2.262,2.287,2.519,2.519,0,0,1-2.116,2.634l.323.069a3.072,3.072,0,0,1,2.412,2.976c.005.628,0,1.255,0,1.911h-6.193Z" transform="translate(0 -0.032)" fill="#707070"/>
    <path id="Path_2509" data-name="Path 2509" d="M-1684.616-1119.7a3.779,3.779,0,0,0,2.453-2.374c.3-.634.5-1.311.741-1.969.019-.05.033-.1.056-.174a11.159,11.159,0,0,1,3.729,1.549c-.394.325-.752.649-1.139.933a10.231,10.231,0,0,1-5.356,2,1.191,1.191,0,0,0-.157.034Z" transform="translate(-186.833 -284.426)" fill="#707070"/>
    <path id="Path_2510" data-name="Path 2510" d="M-1816.628-1119.7c-.391-.054-.784-.095-1.172-.165a10.323,10.323,0,0,1-5.4-2.766.4.4,0,0,1-.035-.054,11.083,11.083,0,0,1,3.678-1.532c.133.4.235.807.4,1.185a15.848,15.848,0,0,0,.823,1.71,3.193,3.193,0,0,0,2.038,1.621Z" transform="translate(-55.806 -284.429)" fill="#707070"/>
    <path id="Path_2511" data-name="Path 2511" d="M-1608.541-1420.193c.145.03.292.053.435.091a3.1,3.1,0,0,1,2.334,3.025c0,.6,0,1.2,0,1.82h-6.168c0-.006-.019-.016-.019-.027.009-.764-.035-1.534.042-2.292a3.016,3.016,0,0,1,2.543-2.587.454.454,0,0,0,.141-.043,2.529,2.529,0,0,1-1.687-1.073,2.357,2.357,0,0,1-.359-1.953,2.462,2.462,0,0,1,2.6-1.884,2.476,2.476,0,0,1,2.244,2.306A2.528,2.528,0,0,1-1608.541-1420.193Z" transform="translate(-255.506)" fill="#707070"/>
    <path id="Path_2512" data-name="Path 2512" d="M-1747.314-1415.2a20.4,20.4,0,0,1,.112-2.486,2.963,2.963,0,0,1,2.554-2.428.23.23,0,0,0,.1-.04,2.528,2.528,0,0,1-1.666-1.04,2.377,2.377,0,0,1-.4-1.928,2.467,2.467,0,0,1,2.581-1.943,2.476,2.476,0,0,1,2.281,2.289,2.518,2.518,0,0,1-2.117,2.633l.323.069a3.071,3.071,0,0,1,2.411,2.955c.007.635,0,1.269,0,1.917Z" transform="translate(-127.57 -0.056)" fill="#707070"/>
    <path id="Path_2513" data-name="Path 2513" d="M-1614.924-1216a12.094,12.094,0,0,0-4.2-1.812l.435-4.168h6.116A10.617,10.617,0,0,1-1614.924-1216Z" transform="translate(-248.738 -192.019)" fill="#707070"/>
    <path id="Path_2514" data-name="Path 2514" d="M-1875.144-1217.84a12.016,12.016,0,0,0-4.247,1.812,10.634,10.634,0,0,1-2.341-5.959h6.155c.051.7.084,1.391.156,2.081S-1875.239-1218.543-1875.144-1217.84Z" transform="translate(-0.516 -192.013)" fill="#707070"/>
    <path id="Path_2515" data-name="Path 2515" d="M-1746.524-1221.984h6.125a22.783,22.783,0,0,1-.416,3.923,17.528,17.528,0,0,0-5.292,0A22.692,22.692,0,0,1-1746.524-1221.984Z" transform="translate(-128.316 -192.017)" fill="#707070"/>
    <path id="Path_2516" data-name="Path 2516" d="M-1728.858-1131.4a8.09,8.09,0,0,1-1.358,2.919,1.143,1.143,0,0,1-2.01,0,7.229,7.229,0,0,1-1.208-2.442c-.048-.148-.089-.3-.139-.464A15.911,15.911,0,0,1-1728.858-1131.4Z" transform="translate(-140.559 -277.48)" fill="#707070"/>
  </g>
</svg>
