<?xml version="1.0" encoding="utf-8"?>
<!-- Generator: Adobe Illustrator 25.4.1, SVG Export Plug-In . SVG Version: 6.00 Build 0)  -->
<svg version="1.1" id="Layer_1" xmlns="http://www.w3.org/2000/svg" xmlns:xlink="http://www.w3.org/1999/xlink" x="0px" y="0px"
	 viewBox="0 0 490.2 326.2" style="enable-background:new 0 0 490.2 326.2;" xml:space="preserve">
<style type="text/css">
	.st0{fill:#E57826;}
</style>
<g>
	<path class="st0" d="M217.6,94.3H79.2c-8.8,0-16-7.2-16-16V51.1c0-8.8,7.2-16,16-16h138.4c8.8,0,16,7.2,16,16v27.1
		C233.6,87.1,226.5,94.3,217.6,94.3z M79.2,43.1c-4.4,0-8,3.6-8,8v27.1c0,4.4,3.6,8,8,8h138.4c4.4,0,8-3.6,8-8V51.1c0-4.4-3.6-8-8-8
		H79.2z"/>
</g>
<g>
	<path class="st0" d="M217.6,160.5H79.2c-8.8,0-16-7.2-16-16v-27.1c0-8.8,7.2-16,16-16h138.4c8.8,0,16,7.2,16,16v27.1
		C233.6,153.3,226.5,160.5,217.6,160.5z M79.2,109.4c-4.4,0-8,3.6-8,8v27.1c0,4.4,3.6,8,8,8h138.4c4.4,0,8-3.6,8-8v-27.1
		c0-4.4-3.6-8-8-8H79.2z"/>
</g>
<g>
	<path class="st0" d="M217.6,226.7H79.2c-8.8,0-16-7.2-16-16v-27.1c0-8.8,7.2-16,16-16h138.4c8.8,0,16,7.2,16,16v27.1
		C233.6,219.6,226.5,226.7,217.6,226.7z M79.2,175.6c-4.4,0-8,3.6-8,8v27.1c0,4.4,3.6,8,8,8h138.4c4.4,0,8-3.6,8-8v-27.1
		c0-4.4-3.6-8-8-8H79.2z"/>
</g>
<g>
	<path class="st0" d="M415.6,160.5H277.2c-8.8,0-16-7.2-16-16v-27.1c0-8.8,7.2-16,16-16h138.4c8.8,0,16,7.2,16,16v27.1
		C431.6,153.3,424.5,160.5,415.6,160.5z M277.2,109.4c-4.4,0-8,3.6-8,8v27.1c0,4.4,3.6,8,8,8h138.4c4.4,0,8-3.6,8-8v-27.1
		c0-4.4-3.6-8-8-8H277.2z"/>
</g>
<g>
	<path class="st0" d="M415.6,226.7H277.2c-8.8,0-16-7.2-16-16v-27.1c0-8.8,7.2-16,16-16h138.4c8.8,0,16,7.2,16,16v27.1
		C431.6,219.6,424.5,226.7,415.6,226.7z M277.2,175.6c-4.4,0-8,3.6-8,8v27.1c0,4.4,3.6,8,8,8h138.4c4.4,0,8-3.6,8-8v-27.1
		c0-4.4-3.6-8-8-8H277.2z"/>
</g>
<g>
	<path class="st0" d="M415.6,293H277.2c-8.8,0-16-7.2-16-16v-27.1c0-8.8,7.2-16,16-16h138.4c8.8,0,16,7.2,16,16V277
		C431.6,285.8,424.5,293,415.6,293z M277.2,241.8c-4.4,0-8,3.6-8,8V277c0,4.4,3.6,8,8,8h138.4c4.4,0,8-3.6,8-8v-27.1
		c0-4.4-3.6-8-8-8H277.2z"/>
</g>
<g>
	<path class="st0" d="M148.1,81.4c-8.6,0-15.7-7-15.7-15.7s7-15.7,15.7-15.7s15.7,7,15.7,15.7S156.7,81.4,148.1,81.4z M148.1,58
		c-4.2,0-7.7,3.4-7.7,7.7s3.4,7.7,7.7,7.7s7.7-3.4,7.7-7.7S152.3,58,148.1,58z"/>
</g>
<g>
	<path class="st0" d="M148.1,145.4c-8.6,0-15.7-7-15.7-15.7s7-15.7,15.7-15.7s15.7,7,15.7,15.7S156.7,145.4,148.1,145.4z M148.1,122
		c-4.2,0-7.7,3.4-7.7,7.7s3.4,7.7,7.7,7.7s7.7-3.4,7.7-7.7S152.3,122,148.1,122z"/>
</g>
<g>
	<path class="st0" d="M148.1,212.4c-8.6,0-15.7-7-15.7-15.7s7-15.7,15.7-15.7s15.7,7,15.7,15.7S156.7,212.4,148.1,212.4z M148.1,189
		c-4.2,0-7.7,3.4-7.7,7.7s3.4,7.7,7.7,7.7s7.7-3.4,7.7-7.7S152.3,189,148.1,189z"/>
</g>
<g>
	<path class="st0" d="M346.4,150.1c-8.6,0-15.7-7-15.7-15.7s7-15.7,15.7-15.7s15.7,7,15.7,15.7S355.1,150.1,346.4,150.1z
		 M346.4,126.8c-4.2,0-7.7,3.4-7.7,7.7s3.4,7.7,7.7,7.7s7.7-3.4,7.7-7.7S350.6,126.8,346.4,126.8z"/>
</g>
<g>
	<path class="st0" d="M346.4,214.1c-8.6,0-15.7-7-15.7-15.7s7-15.7,15.7-15.7s15.7,7,15.7,15.7S355.1,214.1,346.4,214.1z
		 M346.4,190.8c-4.2,0-7.7,3.4-7.7,7.7s3.4,7.7,7.7,7.7s7.7-3.4,7.7-7.7S350.6,190.8,346.4,190.8z"/>
</g>
<g>
	<path class="st0" d="M346.4,281.1c-8.6,0-15.7-7-15.7-15.7s7-15.7,15.7-15.7s15.7,7,15.7,15.7S355.1,281.1,346.4,281.1z
		 M346.4,257.8c-4.2,0-7.7,3.4-7.7,7.7s3.4,7.7,7.7,7.7s7.7-3.4,7.7-7.7S350.6,257.8,346.4,257.8z"/>
</g>
<g>
	<path class="st0" d="M452.2,205.7l-9.5,0c-4.3,0-7.7-3.5-7.7-7.7v-6.9c0-3.6,2.9-6.5,6.5-6.5l11.2,0c4.8,0,5.2-0.8,5.2-5
		c0.1-34.5,0.1-69.8,0-105c0-4.3-0.9-4.7-4.4-4.7c-41.9,0-84.5,0-125.8,0l-10.1,0c1.4,1.4,2.8,2.8,4.2,4.2c0.5,0.5,1,1,1.5,1.5
		c0.8,0.8,1.7,1.6,2.5,2.5c4.8,5.2,5.1,11.3,0.8,15.7c-4.3,4.4-10.9,4.1-15.9-0.7c-3.9-3.8-7.9-7.8-11.6-11.6
		c-1.6-1.6-3.1-3.1-4.7-4.7c-0.9-0.9-1.8-1.8-2.7-2.7c-2.2-2.1-4.4-4.3-6.5-6.6c-5.2-5.5-5.2-11.3-0.2-16.5
		c8.7-8.8,17.4-17.5,25.9-25.8c4.8-4.7,10.5-5.1,15.2-1c2.2,1.9,3.5,4.4,3.6,7.2c0.1,3.1-1.2,6.2-3.8,8.8c-2.9,2.9-5.8,5.7-8.7,8.4
		c25.2,0,50.4,0,75.5,0c19.5,0,39,0,58.5,0c18.8,0,27.9,9.1,27.9,27.8c0,34.2,0,68.3,0,102.5C479.1,193.7,467,205.7,452.2,205.7z
		 M443,197.7l9.3,0c10.4,0,18.8-8.5,18.9-18.9c0-34.2,0-68.3,0-102.5c0-14.2-5.6-19.8-19.9-19.8l0,0c-19.5,0-39,0-58.5,0
		c-25.7,0-51.3,0-77,0c-1.5,0-3-0.1-4.4-0.2l-0.8-0.1c-2.1-0.2-4-1.6-4.7-3.6c-0.7-2-0.2-4.3,1.4-5.7c1.1-1,2.2-2.1,3.3-3.1
		c3.2-3,6.5-6.1,9.7-9.3c1-1,1.5-2,1.5-2.9c0-0.2,0-0.8-0.8-1.4c-0.9-0.8-2-1.7-4.4,0.6c-8.4,8.3-17.1,16.9-25.8,25.7
		c-1.8,1.8-2.2,2.8,0.3,5.4c2.1,2.2,4.2,4.3,6.4,6.4c0.9,0.9,1.8,1.8,2.7,2.7c1.6,1.6,3.1,3.1,4.7,4.7c3.8,3.8,7.7,7.7,11.5,11.5
		c0.6,0.6,2.9,2.5,4.6,0.8c0.4-0.4,1.7-1.8-1-4.7c-0.7-0.7-1.4-1.5-2.2-2.2c-0.5-0.5-1.1-1-1.6-1.6c-2.3-2.3-4.6-4.7-7.1-7.2
		l-1.3-1.4c-1.5-1.6-2-3.9-1.1-5.9c0.8-2,2.8-3.3,5-3.3l16.2,0c41.2,0,83.8,0,125.8,0c8.2,0,12.4,4.3,12.4,12.7
		c0.1,35.1,0.1,70.5,0,105c0,8.8-4.2,12.9-13.2,13l-9.7,0V197.7z M311.1,48.4L311.1,48.4C311.2,48.4,311.1,48.4,311.1,48.4z"/>
</g>
<g>
	<path class="st0" d="M175.4,302.3c-2.4,0-4.8-0.9-7-2.8c-2.2-1.9-3.5-4.4-3.6-7.2c-0.1-3.1,1.2-6.2,3.8-8.8
		c2.9-2.9,5.8-5.7,8.7-8.4c-25.2,0-50.4,0-75.5,0c-19.5,0-39,0-58.5,0c-18.8,0-27.9-9.1-27.9-27.8c0-34.2,0-68.3,0-102.5
		c0-14.8,12.1-26.8,26.9-26.8l9.5,0c4.3,0,7.7,3.5,7.7,7.7v6.9c0,3.6-2.9,6.5-6.5,6.5l-11.2,0c-4.8,0-5.2,0.8-5.2,5
		c-0.1,34.6-0.1,69.9,0,105c0,4.3,0.9,4.7,4.4,4.7c41.9,0,84.5,0,125.8,0l10.1,0c-1.4-1.4-2.8-2.8-4.2-4.2c-0.5-0.5-1-1-1.5-1.5
		c-0.8-0.8-1.7-1.6-2.5-2.5c-4.8-5.2-5.1-11.3-0.8-15.7c4.3-4.4,10.9-4.1,15.9,0.7c3.9,3.8,7.8,7.7,11.6,11.6
		c1.6,1.6,3.1,3.2,4.7,4.7c0.9,0.9,1.8,1.8,2.7,2.7c2.2,2.1,4.4,4.3,6.5,6.6c5.2,5.5,5.2,11.3,0.2,16.5
		c-8.7,8.8-17.4,17.5-25.9,25.8C181.1,301,178.2,302.3,175.4,302.3z M42.3,125.9c-10.4,0-18.9,8.5-18.9,18.9c0,34.2,0,68.3,0,102.5
		c0,14.2,5.6,19.8,19.9,19.8h0c19.5,0,39,0,58.5,0c25.7,0,51.3,0,77,0c1.5,0,3,0.1,4.4,0.2l0.8,0.1c2.1,0.2,4,1.6,4.7,3.6
		c0.7,2,0.2,4.3-1.4,5.7c-1.1,1-2.2,2.1-3.3,3.1c-3.2,3-6.5,6.1-9.7,9.3c-1,1-1.5,2-1.5,2.9c0,0.2,0,0.8,0.8,1.4
		c0.9,0.8,2,1.7,4.4-0.6c8.4-8.3,17.1-16.9,25.8-25.7c1.8-1.8,2.2-2.8-0.3-5.4c-2.1-2.2-4.2-4.3-6.4-6.4c-0.9-0.9-1.8-1.8-2.7-2.7
		c-1.6-1.6-3.1-3.2-4.7-4.7c-3.8-3.8-7.6-7.7-11.5-11.5c-0.6-0.6-2.9-2.5-4.6-0.8c-0.4,0.4-1.7,1.8,1,4.7c0.7,0.7,1.4,1.5,2.2,2.2
		c0.5,0.5,1.1,1,1.6,1.6c2.3,2.3,4.6,4.6,7.1,7.2l1.4,1.4c1.5,1.6,2,3.9,1.1,5.9c-0.8,2-2.8,3.3-5,3.3l-16.2,0
		c-41.2,0-83.8,0-125.8,0c-8.2,0-12.4-4.3-12.4-12.7c-0.1-35.1-0.1-70.4,0-105c0-8.8,4.2-12.9,13.2-13l9.7,0v-5.2L42.3,125.9z
		 M183.4,275.3C183.4,275.3,183.4,275.3,183.4,275.3L183.4,275.3z"/>
</g>
</svg>
