<?xml version="1.0" encoding="utf-8"?>
<!-- Generator: Adobe Illustrator 25.4.1, SVG Export Plug-In . SVG Version: 6.00 Build 0)  -->
<svg version="1.1" id="Layer_1" xmlns="http://www.w3.org/2000/svg" xmlns:xlink="http://www.w3.org/1999/xlink" x="0px" y="0px"
	 viewBox="0 0 612 792" style="enable-background:new 0 0 612 792;" xml:space="preserve">
<style type="text/css">
	.st0{fill:#E67826;}
</style>
<g>
	<path class="st0" d="M65.3,559.3c3.2-4.8,8.2-4.4,13.4-4.4c1.3,0,2.3-1,2.3-2.3c0-1.4,0-2.6,0-3.9c0-85.3,0-170.6,0-255.9
		c0-12.5,6.4-22.3,17.4-24.7c6.4-1.4,13.2-1.2,20.1-1.4c1.3-0.1,2.4,1,2.4,2.3v11.7c0,1.3-1,2.3-2.3,2.3c-4.2,0-8.2-0.1-12.3,0
		c-6.3,0.1-9.3,3-9.3,9.2c0,86.7,0,173.4,0,260.1c0,0,0,0,0,0c0,1.2,1.1,2.2,2.3,2.2h411.4c1.3,0,2.3-1,2.3-2.3c0-1,0-2,0-2.9
		c0-85,0-170,0-255c0-9-2.4-11.4-11.3-11.4c-3.4,0-6.7,0-10.5,0c-1.3,0-2.3-1-2.3-2.3c0-1.9,0-3.7,0-5.4c0-1.9,0-3.7,0-5.9
		c0-1.2,1-2.3,2.2-2.3c8.4-0.1,16.7-1.4,24.5,2.4c7.7,3.8,11.9,10.1,13.1,18.3c0.2,1.5,0.3,3.1,0.3,4.6c0,85.5,0,171,0,256.4v3.9
		c0,1.3,1,2.3,2.3,2.3c2.1,0,4,0,5.9,0c4.4,0.2,7.5,2.7,7.6,6.8c0.1,13.4,0.8,27-0.8,40.2c-2.3,18.7-19,32.2-37.8,32.8
		c-1.7,0.1-3.4,0-5.2,0c-130.6,0-261.2,0-391.8,0c-23.6,0-37.1-10.3-43.5-33.1c0-0.1,0-0.1-0.1-0.2c-0.3-0.4-0.5-0.9-0.5-1.4v-39.7
		C64.9,560.1,65,559.7,65.3,559.3z M361,573.5c0,0.8,0,1.5,0,2.3c0,10.4-8.4,18.9-18.8,19c-25.7,0.1-51.5,0.1-77.2,0
		c-9.3,0-15.7-6.6-16.1-16c-0.1-1.7-0.1-3.4,0-5.2c0-1.3-1-2.3-2.3-2.3H83.2c-1.3,0-2.3,1-2.3,2.3c0,6.1,0,12.1,0,18
		c0,17.9,9.5,27.3,27.5,27.3c131,0,262.1,0,393.1,0c1.1,0,2.2,0,3.3,0c12.2-0.3,22.3-8.4,23.6-20.5c0.9-8.2,0.3-16.5,0.2-24.9
		c0-1.3-1-2.3-2.3-2.3H363.3C362,571.2,361,572.2,361,573.5z M267.4,578.4h74.9c1.3,0,2.3-1,2.3-2.3v-2.5c0-1.3-1-2.3-2.3-2.3h-74.9
		c-1.3,0-2.3,1-2.3,2.3v2.5C265.1,577.4,266.1,578.4,267.4,578.4z"/>
	<path class="st0" d="M225.2,160.2v21c0,2.9-2.4,5.3-5.3,5.3h-5.3c-2.9,0-5.3-2.4-5.3-5.3v-21c0-2.9,2.4-5.3,5.3-5.3h5.3
		C222.9,154.9,225.2,157.3,225.2,160.2z"/>
	<path class="st0" d="M304.9,522.9c-44,0-79.8-35.7-79.9-79.8c-0.1-44.4,35.5-80.2,79.9-80.2c44.2,0,79.8,35.5,79.9,79.7
		C384.9,487,349.2,522.9,304.9,522.9z M304.7,506.8c35.2,0.2,63.9-28.2,64.1-63.4c0.2-35.6-28.1-64.4-63.4-64.5
		c-35.5-0.1-64.2,28.2-64.3,63.6C240.9,478.1,269.2,506.7,304.7,506.8z"/>
	<path class="st0" d="M386.8,283.2h12c1.1,0,2,0.9,2,2v22c0,1.6,1.7,2.5,3,1.6c0.6-0.4,1.2-0.8,1.7-1.2
		c17.5-12.1,40.4-11.5,57.1,1.6c16.6,13,22.7,35.5,14.9,55.2c-7.8,19.7-27.4,32-48.5,30.4c-24.4-1.9-43.3-21.5-44.1-47
		c-0.7-20.9-0.2-41.8-0.2-62.7c0-0.1,0-0.1,0-0.2C385,283.9,385.8,283.2,386.8,283.2z M432.7,378.9c17.5,0.1,32-14.1,32.2-31.7
		c0.3-17.4-14-32-31.6-32.2c-17.9-0.2-32.4,14-32.4,31.8C400.8,364.3,415.2,378.8,432.7,378.9z"/>
	<path class="st0" d="M176.9,266.9c26.4,0,48.1,21.6,48,48c0,26.3-21.7,48-48,48c-26.3,0-48-21.7-48.1-48
		C128.9,288.6,150.5,267,176.9,266.9z M176.8,283c-17.6,0.1-31.9,14.4-31.9,31.9c0,17.5,14.5,32,31.9,32
		c17.6,0.1,32.3-14.7,32.1-32.3C208.7,297,194.4,282.9,176.8,283z"/>
	<path class="st0" d="M219.4,266.6h-4.8c-2.9,0-5.3-2.4-5.3-5.3v-52.8c0-2.9,2.4-5.3,5.3-5.3h4.8c2.9,0,5.3,2.4,5.3,5.3v52.8
		C224.7,264.2,222.3,266.6,219.4,266.6z"/>
	<path class="st0" d="M307.4,346.8h-4.8c-2.9,0-5.3-2.4-5.3-5.3v-36.9c0-2.9,2.4-5.3,5.3-5.3h4.8c2.9,0,5.3,2.4,5.3,5.3v36.9
		C312.7,344.5,310.3,346.8,307.4,346.8z"/>
	<path class="st0" d="M425.1,277.5v-37.3c0-2.8,2.3-5.1,5.1-5.1h5.3c2.8,0,5.1,2.3,5.1,5.1v37.3c0,2.8-2.3,5.1-5.1,5.1h-5.3
		C427.3,282.6,425.1,280.4,425.1,277.5z"/>
	<path class="st0" d="M475.6,250.6h-5.1c-2.8,0-5.1-2.3-5.1-5.1v-37.1c0-2.8,2.3-5.1,5.1-5.1h5.1c2.8,0,5.1,2.3,5.1,5.1v37.1
		C480.7,248.3,478.4,250.6,475.6,250.6z"/>
	<path class="st0" d="M133.6,219.1h6.5c2.4,0,4.4,2,4.4,4.4v38.6c0,2.4-2,4.4-4.4,4.4h-6.5c-2.4,0-4.4-2-4.4-4.4v-38.6
		C129.1,221.1,131.1,219.1,133.6,219.1z"/>
	<path class="st0" d="M254.5,315.2h4.7c2.9,0,5.3,2.4,5.3,5.3v36.8c0,2.9-2.4,5.3-5.3,5.3h-4.7c-2.9,0-5.3-2.4-5.3-5.3v-36.8
		C249.2,317.6,251.6,315.2,254.5,315.2z"/>
	<path class="st0" d="M302.5,251h4.7c2.9,0,5.3,2.4,5.3,5.3v20.9c0,2.9-2.4,5.3-5.3,5.3h-4.7c-2.9,0-5.3-2.4-5.3-5.3v-20.9
		C297.2,253.4,299.6,251,302.5,251z"/>
	<path class="st0" d="M350.4,179.3h5.2c2.8,0,5.1,2.3,5.1,5.1v21.1c0,2.8-2.3,5.1-5.1,5.1h-5.2c-2.8,0-5.1-2.3-5.1-5.1v-21.1
		C345.2,181.6,347.5,179.3,350.4,179.3z"/>
	<path class="st0" d="M172.8,187h8.1c2,0,3.6,1.6,3.6,3.6v24.3c0,2-1.6,3.6-3.6,3.6h-8.1c-2,0-3.6-1.6-3.6-3.6v-24.3
		C169.2,188.6,170.9,187,172.8,187z"/>
	<path class="st0" d="M345.3,325.5v-21c0-2.8,2.3-5.1,5.1-5.1h5.2c2.8,0,5.1,2.3,5.1,5.1v21c0,2.8-2.3,5.1-5.1,5.1h-5.2
		C347.6,330.6,345.3,328.3,345.3,325.5z"/>
	<path class="st0" d="M249.1,261.3v-20.8c0-2.9,2.4-5.3,5.3-5.3h4.7c2.9,0,5.3,2.4,5.3,5.3v20.8c0,2.9-2.4,5.3-5.3,5.3h-4.7
		C251.5,266.6,249.1,264.2,249.1,261.3z"/>
	<path class="st0" d="M390.2,235.1h5.2c2.8,0,5.1,2.3,5.1,5.1v21.1c0,2.8-2.3,5.1-5.1,5.1h-5.2c-2.8,0-5.1-2.3-5.1-5.1v-21.1
		C385.1,237.4,387.4,235.1,390.2,235.1z"/>
	<path class="st0" d="M309,234.6h-8.1c-2,0-3.6-1.6-3.6-3.6v-8.3c0-2,1.6-3.6,3.6-3.6h8.1c2,0,3.6,1.6,3.6,3.6v8.3
		C312.6,233,310.9,234.6,309,234.6z"/>
	<path class="st0" d="M144.6,194.9L144.6,194.9c0,4.3-3.4,7.7-7.7,7.7h0c-4.2,0-7.7-3.4-7.7-7.7v0c0-4.2,3.4-7.7,7.7-7.7h0
		C141.2,187.2,144.6,190.7,144.6,194.9z"/>
	<path class="st0" d="M260.9,202.6h-8.2c-2,0-3.6-1.6-3.6-3.6v-8.2c0-2,1.6-3.6,3.6-3.6h8.2c2,0,3.6,1.6,3.6,3.6v8.2
		C264.5,201,262.9,202.6,260.9,202.6z"/>
	<path class="st0" d="M440.6,210.8L440.6,210.8c0,4.2-3.4,7.6-7.6,7.6h-0.1c-4.2,0-7.6-3.4-7.6-7.6v0c0-4.2,3.4-7.6,7.6-7.6h0.1
		C437.2,203.2,440.6,206.6,440.6,210.8z"/>
	<path class="st0" d="M349,227.2h8.1c2,0,3.6,1.6,3.6,3.6v8.3c0,2-1.6,3.6-3.6,3.6H349c-2,0-3.6-1.6-3.6-3.6v-8.3
		C345.4,228.8,347,227.2,349,227.2z"/>
	<path class="st0" d="M177,235.1L177,235.1c4.2,0,7.7,3.4,7.7,7.7v0.2c0,4.2-3.4,7.7-7.7,7.7h0c-4.2,0-7.7-3.4-7.7-7.7v-0.2
		C169.3,238.5,172.7,235.1,177,235.1z"/>
	<path class="st0" d="M353,259.2L353,259.2c4.3,0,7.8,3.4,7.8,7.7v0c0,4.2-3.4,7.7-7.7,7.7H353c-4.2,0-7.7-3.4-7.7-7.7v0
		C345.3,262.6,348.7,259.2,353,259.2z"/>
	<path class="st0" d="M256.9,298.7L256.9,298.7c-4.3,0-7.7-3.4-7.7-7.7v0c0-4.2,3.4-7.7,7.7-7.7h0.1c4.2,0,7.7,3.4,7.7,7.7v0
		C264.5,295.3,261.1,298.7,256.9,298.7z"/>
	<path class="st0" d="M477.4,283.4c2,0,3.6,1.6,3.6,3.6l0,0v8c0,2-1.6,3.6-3.6,3.6h-8.5c-2,0-3.6-1.6-3.6-3.6v-8
		c0-2,1.6-3.6,3.6-3.6H477.4z"/>
	<g>
		<path class="st0" d="M298.6,500.8v-12.7c-8.9-0.4-17.7-2.9-22.7-5.7l4-15.6c5.7,3,13.6,5.9,22.2,5.9c7.6,0,12.9-3,12.9-8.3
			c0-5.1-4.3-8.3-14.2-11.6c-14.3-4.8-24.1-11.5-24.1-24.5c0-11.8,8.3-21.1,22.6-23.8v-12.7h13.1v11.8c8.8,0.3,14.9,2.3,19.4,4.4
			l-4,15.1c-3.4-1.5-9.6-4.6-19.2-4.6c-8.6,0-11.4,3.8-11.4,7.6c0,4.4,4.7,7.2,16,11.4c15.9,5.6,22.3,13,22.3,25.1
			c0,11.9-8.4,22-23.7,24.6v13.7H298.6z"/>
	</g>
</g>
</svg>
