<svg width="1008" height="1008" viewBox="0 0 1008 1008" fill="none" xmlns="http://www.w3.org/2000/svg">
<rect width="1008" height="1008" rx="504" fill="white"/>
<mask id="path-2-inside-1" fill="white">
<path d="M408.879 205.967C334.503 228.412 270.528 276.568 228.382 341.831C186.235 407.094 168.662 485.215 178.801 562.24C188.939 639.265 226.13 710.177 283.729 762.311C341.329 814.445 415.585 844.404 493.237 846.839C570.888 849.274 646.876 824.025 707.628 775.602C768.38 727.179 809.94 658.736 824.884 582.497C839.828 506.259 827.183 427.191 789.208 359.415C751.233 291.64 690.401 239.571 617.577 212.51L605.327 245.475C670.331 269.63 724.631 316.107 758.529 376.605C792.426 437.103 803.713 507.681 790.374 575.733C777.034 643.785 739.937 704.878 685.709 748.102C631.48 791.325 563.652 813.863 494.339 811.69C425.026 809.516 358.742 782.774 307.328 736.238C255.914 689.702 222.717 626.404 213.667 557.65C204.617 488.896 220.303 419.164 257.924 360.909C295.545 302.654 352.65 259.669 419.04 239.634L408.879 205.967Z"/>
</mask>
<path d="M408.879 205.967C334.503 228.412 270.528 276.568 228.382 341.831C186.235 407.094 168.662 485.215 178.801 562.24C188.939 639.265 226.13 710.177 283.729 762.311C341.329 814.445 415.585 844.404 493.237 846.839C570.888 849.274 646.876 824.025 707.628 775.602C768.38 727.179 809.94 658.736 824.884 582.497C839.828 506.259 827.183 427.191 789.208 359.415C751.233 291.64 690.401 239.571 617.577 212.51L605.327 245.475C670.331 269.63 724.631 316.107 758.529 376.605C792.426 437.103 803.713 507.681 790.374 575.733C777.034 643.785 739.937 704.878 685.709 748.102C631.48 791.325 563.652 813.863 494.339 811.69C425.026 809.516 358.742 782.774 307.328 736.238C255.914 689.702 222.717 626.404 213.667 557.65C204.617 488.896 220.303 419.164 257.924 360.909C295.545 302.654 352.65 259.669 419.04 239.634L408.879 205.967Z" stroke="#272727" stroke-width="246" mask="url(#path-2-inside-1)"/>
<path d="M423.88 657.433H362.748C341.116 657.433 330.3 657.433 323.842 653.241C316.864 648.711 312.475 641.115 312.035 632.806C311.629 625.118 317.031 615.748 327.834 597.006L457.854 371.463C468.663 352.712 474.068 343.336 480.927 339.835C488.339 336.052 497.115 336.046 504.533 339.818C511.397 343.309 516.815 352.676 527.652 371.411L527.652 371.411L558.341 424.466C562.358 431.412 564.367 434.885 565.25 438.552C566.211 442.544 566.213 446.707 565.255 450.7C564.376 454.369 562.37 457.843 558.358 464.793L458.782 637.282C454.773 644.225 452.769 647.697 450.034 650.292C447.058 653.117 443.455 655.197 439.521 656.363C435.906 657.433 431.898 657.433 423.88 657.433Z" fill="#272727"/>
<path d="M620.432 657.437H587.859C565.391 657.437 554.157 657.437 547.45 653.083C540.203 648.378 535.645 640.489 535.19 631.86C534.769 623.875 540.381 614.143 551.606 594.68L567.866 566.486C579.091 547.021 584.703 537.289 591.825 533.655C599.522 529.727 608.634 529.721 616.336 533.637C623.463 537.262 629.09 546.986 640.342 566.434L656.656 594.628C667.924 614.104 673.558 623.841 673.145 631.832C672.698 640.467 668.143 648.366 660.892 653.078C654.182 657.437 642.932 657.437 620.432 657.437Z" fill="#272727"/>
<path d="M624.479 171.324C629.81 170.541 633.991 175.822 632.004 180.831L593.246 278.535C591.259 283.544 584.595 284.524 581.251 280.298L516.015 197.881C512.671 193.656 515.155 187.395 520.486 186.611L624.479 171.324Z" fill="#272727"/>
</svg>
