<svg width="75" height="75" viewBox="0 0 100 101" fill="none" xmlns="http://www.w3.org/2000/svg">
<path d="M41.9568 0.970354L41.9588 0.970004C52.2154 -0.813656 62.7724 0.737028 72.0869 5.39547L72.0869 5.39554L72.0925 5.39821C72.7816 5.72146 73.3747 6.21899 73.8136 6.84186C74.125 7.33236 74.2295 7.83111 74.1662 8.31425C74.1022 8.80202 73.8646 9.29173 73.4626 9.7513C72.6978 10.6255 71.5412 10.803 70.2097 10.2817L70.2095 10.2817C69.3975 9.96428 68.5851 9.62326 67.769 9.28072C65.6499 8.39127 63.5064 7.49151 61.2818 6.96855C44.0184 2.90944 29.1105 7.36731 17.1063 20.4078L17.1062 20.4079C8.38435 29.8929 4.82205 41.4128 5.9675 54.2342C7.64211 73.1615 21.4792 88.9118 40.097 93.3534C64.8784 99.2631 89.8666 82.5598 93.9783 57.3453C94.9766 51.3574 94.7476 45.2284 93.3051 39.3321L93.3045 39.3294C93.1365 38.6746 93.0599 38.07 93.153 37.5233C93.2446 36.9858 93.5027 36.4895 94.0352 36.0476C95.5993 34.763 97.8887 35.5655 98.246 37.7395L98.2461 37.7397C98.3493 38.3651 98.456 38.9907 98.5627 39.6164C99.1502 43.0615 99.7381 46.5094 99.7497 49.9435C99.8316 72.6235 84.6475 92.2578 62.7597 98.1047C35.7798 105.313 7.77252 88.253 1.78549 60.8669L1.78544 60.8667C1.25591 58.454 0.968037 55.9972 0.678568 53.5268C0.54421 52.3802 0.409509 51.2306 0.250142 50.0812C0.453584 25.876 18.1556 4.90887 41.9568 0.970354Z" fill="#18C145" stroke="#111111" stroke-width="0.5"/>
<path d="M48.6453 55.5479L48.8719 55.7756L49.037 55.5C49.322 55.024 49.6427 54.5704 49.9963 54.1432C64.3053 39.7934 78.6189 25.4506 92.9372 11.1146L92.9373 11.1147L92.9431 11.1085C93.3154 10.7094 93.7133 10.3351 94.1344 9.98814C94.6193 9.61736 95.2199 9.43142 95.829 9.46352C96.4394 9.49569 97.0186 9.7448 97.4625 10.1663L97.4647 10.1684C97.9139 10.5846 98.1979 11.1497 98.2639 11.7595C98.3299 12.368 98.1744 12.9798 97.8262 13.4824C97.5281 13.8837 97.1943 14.257 96.829 14.5978L96.8289 14.5977L96.8225 14.6041C81.6114 29.8625 66.3877 45.1197 51.1514 60.3758L51.1512 60.376C50.1611 61.37 49.3807 61.8116 48.6452 61.8157C47.9106 61.8199 47.1363 61.3881 46.1572 60.4068L46.157 60.4066C45.5237 59.7734 44.8902 59.1404 44.2569 58.5076C40.4579 54.7116 36.6612 50.9179 32.9023 47.0711C32.6049 46.7648 32.3119 46.3563 32.0995 45.9284C31.885 45.4964 31.7644 45.0688 31.782 44.7195C31.7994 44.3732 31.9665 43.97 32.2283 43.5735C32.4877 43.1808 32.8247 42.8178 33.1487 42.5548L33.1491 42.5545C33.8727 41.9649 34.856 42.0816 35.7268 42.7C36.1245 43.0003 36.4952 43.3351 36.8344 43.7005L36.8343 43.7006L36.8409 43.7072C40.517 47.3815 44.1836 51.0653 48.1543 55.0546L48.6453 55.5479Z" fill="#18C145" stroke="#111111" stroke-width="0.5"/>
</svg>
