<svg width="24" height="23" viewBox="0 0 24 23" fill="none" xmlns="http://www.w3.org/2000/svg">
<ellipse opacity="0.2" cx="12" cy="11.5" rx="12" ry="11.5" fill="white"/>
<path d="M16.5118 17C16.6937 16.9365 16.8518 16.8385 16.9369 16.6378C17.0381 16.3997 17.0176 16.1723 16.875 15.9608C16.8409 15.9129 16.8037 15.868 16.7635 15.8263C15.4822 14.4157 14.2007 13.0054 12.9188 11.5952C12.8917 11.5653 12.8658 11.5344 12.8193 11.4808C12.8544 11.4578 12.8878 11.4317 12.9191 11.4028C14.2083 9.98565 15.497 8.56803 16.7852 7.14997C17.0147 6.89757 17.0619 6.59915 16.9183 6.32227C16.8765 6.24325 16.8198 6.17494 16.7521 6.12191C16.6844 6.06887 16.6072 6.03233 16.5256 6.01471C16.444 5.99709 16.36 5.9988 16.2791 6.01972C16.1981 6.04065 16.1222 6.08031 16.0563 6.13606C16.0134 6.17435 15.9725 6.21541 15.934 6.25904C14.652 7.66867 13.3702 9.07866 12.0887 10.489C12.0615 10.5189 12.0397 10.5544 12.0111 10.5921C11.9693 10.5477 11.9409 10.5191 11.9133 10.4895L8.04664 6.23697C7.81403 5.98134 7.53812 5.93049 7.28594 6.09436C7.13062 6.19499 7.05283 6.35617 7 6.537V6.75226C7.04574 6.95569 7.16731 7.10207 7.29792 7.24415C8.56006 8.62974 9.8213 10.0163 11.0816 11.4039C11.1117 11.4312 11.1437 11.4557 11.1775 11.4771V11.5231C11.1438 11.5445 11.1119 11.5692 11.0821 11.5968C9.82065 12.983 8.55949 14.3692 7.29866 15.7555C7.16804 15.8989 7.04598 16.0437 7.00073 16.2474V16.4626C7.01932 16.5165 7.03596 16.5687 7.05675 16.6201C7.14065 16.8291 7.30135 16.9341 7.48896 16.9997H7.68464C7.86931 16.9494 8.00139 16.8157 8.13152 16.6723C9.39105 15.2834 10.6515 13.8959 11.9128 12.5096C11.9379 12.4768 11.9602 12.4415 11.9796 12.4043H12.0216C12.041 12.4415 12.0634 12.4766 12.0887 12.5093C13.3488 13.8972 14.6093 15.2848 15.8699 16.672C16.0001 16.8157 16.1321 16.9491 16.3168 16.9995L16.5118 17Z" fill="#FFC800"/>
</svg>
