<svg width="14" height="16" viewBox="0 0 14 16" fill="none" xmlns="http://www.w3.org/2000/svg">
<path d="M13.374 3H10.249V1.125C10.249 0.95924 10.1832 0.800269 10.066 0.683058C9.94876 0.565848 9.78978 0.5 9.62402 0.5H4.62402C4.45826 0.5 4.29929 0.565848 4.18208 0.683058C4.06487 0.800269 3.99902 0.95924 3.99902 1.125V3H0.874023C0.708263 3 0.549291 3.06585 0.432081 3.18306C0.314871 3.30027 0.249023 3.45924 0.249023 3.625C0.249023 3.79076 0.314871 3.94973 0.432081 4.06694C0.549291 4.18415 0.708263 4.25 0.874023 4.25H1.49902V13.625C1.49955 14.1221 1.69727 14.5987 2.04878 14.9502C2.4003 15.3018 2.8769 15.4995 3.37402 15.5H10.874C11.3711 15.4995 11.8477 15.3018 12.1993 14.9502C12.5508 14.5987 12.7485 14.1221 12.749 13.625V4.25H13.374C13.5398 4.25 13.6988 4.18415 13.816 4.06694C13.9332 3.94973 13.999 3.79076 13.999 3.625C13.999 3.45924 13.9332 3.30027 13.816 3.18306C13.6988 3.06585 13.5398 3 13.374 3ZM5.24902 1.75H8.99902V3H5.24902V1.75ZM11.499 13.625C11.4988 13.7907 11.4328 13.9495 11.3157 14.0666C11.1985 14.1838 11.0397 14.2497 10.874 14.25H3.37402C3.20834 14.2497 3.04953 14.1838 2.93237 14.0666C2.81522 13.9495 2.74929 13.7907 2.74902 13.625V4.25H11.499V13.625Z" fill="#717171"/>
<path d="M5.24902 5.5C5.08326 5.5 4.92428 5.56583 4.80707 5.68304C4.68986 5.80025 4.62402 5.95924 4.62402 6.125V11.75C4.62402 11.9158 4.68986 12.0747 4.80707 12.1919C4.92428 12.3092 5.08326 12.375 5.24902 12.375C5.41478 12.375 5.57375 12.3092 5.69096 12.1919C5.80817 12.0747 5.87402 11.9158 5.87402 11.75V6.125C5.87402 5.95924 5.80817 5.80025 5.69096 5.68304C5.57375 5.56583 5.41478 5.5 5.24902 5.5Z" fill="#717171"/>
<path d="M8.99902 5.5C8.83326 5.5 8.67431 5.56583 8.5571 5.68304C8.43989 5.80025 8.37402 5.95924 8.37402 6.125V11.75C8.37402 11.9158 8.43989 12.0747 8.5571 12.1919C8.67431 12.3092 8.83326 12.375 8.99902 12.375C9.16478 12.375 9.32377 12.3092 9.44098 12.1919C9.55819 12.0747 9.62402 11.9158 9.62402 11.75V6.125C9.62402 5.95924 9.55819 5.80025 9.44098 5.68304C9.32377 5.56583 9.16478 5.5 8.99902 5.5Z" fill="#717171"/>
</svg>
