<svg width="23" height="23" viewBox="0 0 23 23" fill="none" xmlns="http://www.w3.org/2000/svg">
<path d="M11.5 22C17.299 22 22 17.299 22 11.5C22 5.70101 17.299 1 11.5 1C5.70101 1 1 5.70101 1 11.5C1 17.299 5.70101 22 11.5 22Z" stroke="#707070" stroke-width="2"/>
<path d="M11.9531 7.96875C11.724 7.96875 11.5286 7.89062 11.3672 7.73438C11.2057 7.57812 11.125 7.38021 11.125 7.14062C11.125 6.90104 11.2057 6.70312 11.3672 6.54688C11.5286 6.38542 11.724 6.30469 11.9531 6.30469C12.1875 6.30469 12.3854 6.38542 12.5469 6.54688C12.7135 6.70312 12.7969 6.90104 12.7969 7.14062C12.7969 7.36979 12.7135 7.5651 12.5469 7.72656C12.3854 7.88802 12.1875 7.96875 11.9531 7.96875ZM12.5781 18H11.2969V10H12.5781V18Z" fill="#707070"/>
</svg>
