<svg width="22" height="22" viewBox="0 0 22 22" fill="none" xmlns="http://www.w3.org/2000/svg">
<path d="M11.1141 21.996H9.88705C9.8353 21.9808 9.78249 21.9694 9.72905 21.962C8.27238 21.874 6.85333 21.4642 5.57405 20.762C4.1617 20.022 2.93919 18.966 2.00171 17.6763C1.06423 16.3865 0.437066 14.8978 0.169052 13.326C0.0920521 12.926 0.0580518 12.518 0.00305176 12.114V10.884C0.0185272 10.8255 0.0302179 10.766 0.0380516 10.706C0.123537 9.25524 0.53362 7.84217 1.23805 6.57102C2.08196 4.94426 3.34461 3.57213 4.89574 2.59617C6.44687 1.6202 8.23031 1.07576 10.0621 1.01902C12.1047 0.885507 14.1374 1.39954 15.8711 2.48801C17.3804 3.36485 18.6417 4.61145 19.5362 6.1104C20.4307 7.60935 20.929 9.31132 20.9841 11.056C21.1 12.9235 20.678 14.7851 19.7681 16.42C19.0294 17.8341 17.9738 19.0582 16.6836 19.9967C15.3935 20.9352 13.9038 21.5626 12.3311 21.83C11.9281 21.907 11.5191 21.942 11.1141 21.996ZM12.8521 16.571C12.5431 16.637 12.2521 16.723 11.9621 16.757C11.1451 16.851 10.784 16.489 10.9431 15.683C11.0941 14.915 11.3081 14.159 11.5061 13.4C11.7399 12.7011 11.8932 11.9777 11.9631 11.244C11.9938 10.9575 11.9465 10.668 11.8263 10.406C11.7061 10.1441 11.5174 9.91954 11.2801 9.75602C10.7627 9.43653 10.1456 9.31903 9.54705 9.42601C8.88059 9.53911 8.23177 9.73879 7.61705 10.02C7.59085 10.0317 7.56724 10.0485 7.54766 10.0694C7.52808 10.0904 7.51291 10.1151 7.50305 10.142C7.44505 10.342 7.40305 10.542 7.35205 10.75C7.38205 10.758 7.39605 10.766 7.40705 10.763C7.45305 10.751 7.49905 10.738 7.54405 10.722C7.92515 10.5648 8.34331 10.52 8.74905 10.593C9.04005 10.655 9.20705 10.785 9.22105 11.077C9.2451 11.409 9.2239 11.7427 9.15805 12.069C8.99305 12.786 8.78405 13.493 8.58405 14.202C8.37511 14.8378 8.24678 15.4973 8.20205 16.165C8.18643 16.4949 8.27329 16.8216 8.45073 17.1002C8.62816 17.3788 8.88746 17.5957 9.19305 17.721C9.72546 17.9495 10.3172 18.0011 10.8811 17.868C11.4655 17.707 12.0412 17.5161 12.6061 17.296C12.6278 17.287 12.6473 17.2733 12.6634 17.2561C12.6794 17.2388 12.6916 17.2184 12.6991 17.196C12.7561 16.992 12.8031 16.78 12.8521 16.571ZM11.4521 5.02001C11.2577 5.04815 11.065 5.08722 10.8751 5.13701C10.658 5.20033 10.4588 5.31341 10.2932 5.46726C10.1275 5.62111 10.0001 5.8115 9.92093 6.02326C9.8418 6.23502 9.81317 6.46232 9.83732 6.68709C9.86147 6.91186 9.93774 7.1279 10.0601 7.31801C10.2353 7.58625 10.4866 7.79612 10.7818 7.92081C11.0769 8.0455 11.4026 8.07934 11.7171 8.01801C12.1099 7.96462 12.4661 7.75928 12.7092 7.44608C12.9523 7.13288 13.0628 6.73682 13.0171 6.34301C12.9532 5.97404 12.7614 5.63936 12.4754 5.39763C12.1895 5.1559 11.8275 5.02257 11.4531 5.02102L11.4521 5.02001Z" fill="#707070"/>
</svg>
