<svg width="834" height="173" viewBox="0 0 834 173" fill="none" xmlns="http://www.w3.org/2000/svg">
<path d="M301.3 66.5C299 70.6 295.5 73.9 291.2 76C286.7 78.4 281.1 79.6 274.4 79.6H262V109.1H242V27H274.4C280.9 27 286.5 28.1 291 30.4C295.3 32.4 298.8 35.7 301.2 39.8C303.5 44 304.7 48.7 304.6 53.5C304.6 58.1 303.5 62.5 301.3 66.5ZM281.4 61.1C283.3 59.3 284.2 56.8 284.2 53.5C284.2 50.2 283.3 47.7 281.4 45.9C279.5 44.1 276.7 43.2 272.9 43.2H262V63.8H272.9C276.7 63.8 279.6 62.9 281.4 61.1Z" fill="white"/>
<path d="M366.1 94.7001H335.5L330.6 109.2H309.7L339.4 27.1001H362.5L392.2 109.2H371L366.1 94.7001ZM360.9 79.2001L350.7 49.2001L340.7 79.2001H360.9Z" fill="white"/>
<path d="M474.6 109.2H454.6L421.2 58.6001V109.2H401.2V27.1001H421.2L454.6 78.0001V27.1001H474.6V109.2Z" fill="white"/>
<path d="M543.5 53.0001C542.1 50.3001 539.8 48.1001 537.1 46.8001C534.1 45.3001 530.7 44.6001 527.3 44.6001C520.8 44.6001 515.6 46.7001 511.8 51.0001C507.9 55.2001 506 60.9001 505.9 68.1001C505.9 75.7001 507.9 81.6001 512 85.8001C516.1 90.0001 521.7 92.2001 528.9 92.2001C533.3 92.3001 537.7 91.0001 541.4 88.5001C544.9 85.8001 547.5 82.0001 548.8 77.7001H523.5V63.0001H567V81.6001C565.5 86.7001 562.9 91.4001 559.5 95.5001C555.8 99.9001 551.2 103.4 546 105.9C540.2 108.6 533.9 110 527.5 109.9C519.9 110 512.5 108.2 505.8 104.6C499.6 101.2 494.4 96.0001 491 89.8001C483.9 76.2001 483.9 60.1001 491 46.5001C494.4 40.3001 499.6 35.1001 505.8 31.6001C512.4 28.0001 519.9 26.2001 527.4 26.3001C537.2 26.3001 545.5 28.7001 552.2 33.4001C558.9 38.1001 563.7 45.1001 565.6 53.1001H543.5V53.0001Z" fill="white"/>
<path d="M595.7 104.6C589.3 101.1 584 95.8999 580.4 89.5999C572.8 76.1999 572.8 59.6999 580.4 46.2999C584.1 39.9999 589.3 34.7999 595.7 31.2999C608.9 24.0999 624.9 24.0999 638.1 31.2999C644.4 34.7999 649.7 39.9999 653.3 46.2999C660.7 59.7999 660.7 76.0999 653.3 89.5999C649.7 95.8999 644.4 101.1 638.1 104.6C624.9 111.8 608.9 111.8 595.7 104.6ZM632.7 85.1999C636.6 80.7999 638.6 75.0999 638.6 67.8999C638.6 60.6999 636.6 54.9999 632.7 50.4999C628.8 46.1999 623.5 43.9999 617 43.9999C610.4 43.9999 605.2 46.0999 601.2 50.3999C597.3 54.6999 595.3 60.4999 595.3 67.7999C595.3 75.0999 597.3 80.8999 601.2 85.1999C605.1 89.4999 610.4 91.6999 617 91.6999C623.6 91.6999 628.8 89.4999 632.7 85.1999Z" fill="white"/>
<path d="M690 93.7H716.2V109.1H670V27H690V93.7Z" fill="white"/>
<path d="M745.8 27.1001V109.2H725.8V27.1001H745.8Z" fill="white"/>
<path d="M833.7 109.2H813.7L780.3 58.6001V109.2H760.3V27.1001H780.3L813.7 78.0001V27.1001H833.7V109.2Z" fill="white"/>
<path d="M99.5 28.9001L138.2 0.800049L144.7 20.8L99.5 53.7001V28.9001Z" fill="#FFC800"/>
<path d="M106.5 59.1L154.7 24.1001L147.1 0.800049H172.6L189.9 53.9001L144.7 86.8L106.5 59.1Z" fill="#FFC800"/>
<path d="M99.5 64.5L144.6 97.3L99.5 130.5V64.5Z" fill="#FFC800"/>
<path d="M99.5 141L136.3 114.2L144.7 140L99.5 173V141Z" fill="#FFC800"/>
<path d="M90.8 28.9001L52.1 0.800049L45.6 20.8L90.8 53.7001V28.9001Z" fill="#E1AA00"/>
<path d="M83.7 59.1L35.5 24.1001L43.1 0.800049H17.7L0.300003 53.9001L45.6 86.8L83.7 59.1Z" fill="#E1AA00"/>
<path d="M90.8 64.5L45.7 97.3L90.8 130.5V64.5Z" fill="#E1AA00"/>
<path d="M90.8 141L54 114.2L45.6 140L90.8 173V141Z" fill="#E1AA00"/>
<path d="M243.5 142C244.5 140.4 245.8 139 247.5 138.1C251.1 136.1 255.5 136.2 259.1 138.4C260.9 139.5 262.2 141.2 263 143.2H258.8C258.3 142.1 257.5 141.3 256.5 140.7C255.5 140.1 254.3 139.8 253.1 139.9C251.8 139.9 250.5 140.2 249.3 140.9C248.2 141.5 247.3 142.5 246.7 143.6C245.4 146.2 245.4 149.3 246.7 151.9C247.3 153 248.2 154 249.3 154.7C250.4 155.4 251.8 155.7 253.1 155.7C254.3 155.7 255.5 155.4 256.5 154.9C257.5 154.3 258.3 153.4 258.8 152.4H263C262.3 154.4 260.9 156 259.1 157.1C257.3 158.2 255.2 158.8 253 158.8C251.1 158.8 249.2 158.3 247.5 157.4C245.8 156.5 244.5 155.1 243.5 153.5C241.6 149.8 241.6 145.6 243.5 142Z" fill="white"/>
<path d="M270 157.5C268.7 156.8 267.7 155.7 267 154.4C266.2 153 265.9 151.4 265.9 149.8C265.9 148.2 266.3 146.6 267 145.2C267.7 143.9 268.8 142.8 270.1 142.1C272.9 140.7 276.1 140.7 278.9 142.1C280.2 142.8 281.3 143.9 282 145.2C283.5 148.1 283.5 151.5 282 154.4C281.2 155.7 280.1 156.8 278.8 157.5C277.4 158.2 275.9 158.6 274.4 158.6C272.8 158.7 271.3 158.3 270 157.5ZM276.9 154.9C277.7 154.5 278.4 153.8 278.8 153C279.3 152 279.6 151 279.5 149.9C279.5 148.8 279.3 147.7 278.8 146.8C278.4 146 277.7 145.3 276.9 144.9C275.3 144 273.5 144 271.9 144.9C271.1 145.3 270.5 146 270.1 146.8C269.6 147.8 269.4 148.8 269.4 149.9C269.3 151.4 269.8 153 270.8 154.1C271.7 155.1 273 155.6 274.3 155.6C275.2 155.6 276.1 155.4 276.9 154.9Z" fill="white"/>
<path d="M310.7 142C311.8 142.6 312.6 143.4 313.2 144.5C313.8 145.7 314.1 147.1 314.1 148.4V158.4H310.6V148.9C310.7 147.6 310.3 146.4 309.5 145.4C307.7 143.8 305 143.8 303.3 145.4C302.5 146.4 302.1 147.6 302.1 148.9V158.4H298.6V148.9C298.7 147.6 298.3 146.4 297.5 145.4C295.7 143.8 293 143.8 291.3 145.4C290.5 146.4 290.1 147.6 290.1 148.9V158.4H286.6V141.4H290.1V143.3C290.7 142.6 291.4 142 292.3 141.7C293.2 141.3 294.1 141.1 295.1 141.1C296.4 141.1 297.6 141.4 298.7 142C299.8 142.6 300.6 143.4 301.2 144.5C301.7 143.5 302.6 142.6 303.6 142.1C304.7 141.5 305.9 141.2 307.1 141.2C308.4 141.1 309.6 141.4 310.7 142Z" fill="white"/>
<path d="M324.5 141.9C325.6 141.4 326.8 141.1 328 141.1C330.9 141.1 333.6 142.7 334.9 145.3C335.6 146.7 335.9 148.3 335.9 149.8C335.9 151.4 335.6 152.9 334.9 154.4C334.2 155.7 333.2 156.8 332 157.5C330.8 158.2 329.4 158.6 328 158.6C326.8 158.6 325.6 158.4 324.5 157.8C323.6 157.3 322.7 156.6 322 155.8V166.3H318.5V141.3H322V143.8C322.7 143 323.6 142.4 324.5 141.9ZM331.6 146.8C331.2 146 330.5 145.3 329.7 144.9C327.3 143.5 324.3 144.3 322.8 146.6C322.7 146.7 322.7 146.8 322.7 146.9C322.2 147.8 322 148.9 322 149.9C322 151 322.2 152 322.7 153C324 155.5 327 156.4 329.4 155.1C329.5 155.1 329.6 155 329.7 155C330.5 154.5 331.2 153.8 331.6 153C332.1 152.1 332.3 151 332.3 149.9C332.4 148.8 332.1 147.7 331.6 146.8Z" fill="white"/>
<path d="M342.4 157.5C341.1 156.8 340.1 155.7 339.4 154.4C338.6 153 338.3 151.4 338.3 149.8C338.3 148.2 338.7 146.6 339.4 145.2C340.1 143.9 341.2 142.8 342.5 142.1C345.3 140.7 348.5 140.7 351.3 142.1C352.6 142.8 353.7 143.9 354.4 145.2C355.9 148.1 355.9 151.5 354.4 154.4C353.6 155.7 352.5 156.8 351.2 157.5C349.8 158.2 348.3 158.6 346.8 158.6C345.2 158.7 343.7 158.3 342.4 157.5ZM349.3 154.9C350.1 154.4 350.8 153.8 351.2 153C351.7 152 352 151 351.9 149.9C351.9 148.8 351.7 147.7 351.2 146.8C350.8 146 350.1 145.3 349.3 144.9C348.5 144.5 347.7 144.2 346.8 144.2C345.9 144.2 345.1 144.4 344.3 144.9C343.5 145.3 342.9 146 342.5 146.8C342 147.8 341.8 148.8 341.8 149.9C341.7 151.4 342.2 153 343.2 154.1C344.1 155.1 345.4 155.6 346.7 155.6C347.6 155.6 348.5 155.4 349.3 154.9Z" fill="white"/>
<path d="M374.4 141.4V158.3H370.9V156.3C370.3 157 369.6 157.6 368.7 157.9C367.8 158.3 366.8 158.5 365.8 158.5C364.6 158.5 363.3 158.2 362.2 157.7C361.1 157.1 360.3 156.3 359.7 155.2C359.1 154 358.8 152.6 358.8 151.3V141.3H362.3V150.7C362.2 152 362.6 153.2 363.4 154.2C364.2 155 365.3 155.5 366.5 155.4C367.7 155.5 368.8 155 369.6 154.2C370.4 153.2 370.8 152 370.8 150.7V141.3L374.4 141.4Z" fill="white"/>
<path d="M391.1 142C392.2 142.6 393 143.4 393.6 144.5C394.2 145.7 394.5 147.1 394.5 148.4V158.4H391V148.9C391.1 147.6 390.7 146.4 389.9 145.4C389.1 144.6 388 144.1 386.8 144.2C385.6 144.1 384.5 144.6 383.7 145.4C382.9 146.4 382.5 147.6 382.5 148.9V158.4H379V141.4H382.5V143.3C383.1 142.6 383.9 142 384.7 141.7C385.6 141.3 386.6 141.1 387.6 141.1C388.8 141.1 390 141.4 391.1 142Z" fill="white"/>
<path d="M398.8 145.3C400.2 142.7 402.9 141.1 405.8 141.1C406.9 141.1 408 141.3 409.1 141.8C410.1 142.2 411 142.9 411.7 143.7V135.5H415.2V158.3H411.7V155.7C411.1 156.6 410.3 157.2 409.3 157.7C408.2 158.3 407 158.5 405.8 158.5C404.4 158.5 403 158.1 401.8 157.4C400.6 156.6 399.6 155.6 398.9 154.3C398.2 152.9 397.8 151.3 397.8 149.7C397.8 148.2 398.1 146.7 398.8 145.3ZM410.9 146.8C410.5 146 409.8 145.3 409 144.8C407.4 143.9 405.6 143.9 404 144.8C403.2 145.3 402.6 145.9 402.1 146.7C401.6 147.6 401.4 148.7 401.4 149.7C401.4 150.8 401.6 151.8 402.1 152.8C402.5 153.6 403.2 154.3 404 154.8C404.8 155.3 405.6 155.5 406.5 155.5C407.4 155.5 408.3 155.3 409 154.8C409.8 154.3 410.5 153.6 410.9 152.8C411.4 151.9 411.6 150.8 411.6 149.7C411.7 148.7 411.4 147.7 410.9 146.8Z" fill="white"/>
<path d="M443.6 137L436.5 150.6V158.4H433V150.6L425.9 137H429.8L434.8 147.5L439.8 137H443.6Z" fill="white"/>
<path d="M449.4 157.5C448.1 156.8 447.1 155.7 446.4 154.4C445.6 153 445.3 151.4 445.3 149.8C445.3 148.2 445.7 146.6 446.4 145.2C447.1 143.9 448.2 142.8 449.5 142.1C452.3 140.7 455.5 140.7 458.3 142.1C459.6 142.8 460.7 143.9 461.4 145.2C462.2 146.6 462.6 148.2 462.5 149.8C462.5 151.4 462.1 153 461.3 154.4C460.5 155.7 459.4 156.8 458.1 157.5C456.7 158.2 455.2 158.6 453.7 158.6C452.2 158.7 450.7 158.3 449.4 157.5ZM456.2 154.9C457 154.4 457.7 153.8 458.1 153C458.6 152 458.9 151 458.8 149.9C458.8 148.8 458.6 147.7 458.1 146.8C457.7 146 457 145.3 456.2 144.9C455.4 144.5 454.6 144.2 453.7 144.2C452.8 144.2 452 144.4 451.2 144.9C450.4 145.4 449.8 146 449.4 146.8C448.9 147.8 448.7 148.8 448.7 149.9C448.6 151.4 449.1 153 450.1 154.1C451 155.1 452.3 155.6 453.6 155.6C454.6 155.6 455.5 155.4 456.2 154.9Z" fill="white"/>
<path d="M481.3 141.4V158.3H477.8V156.3C477.2 157 476.5 157.6 475.6 157.9C474.7 158.3 473.7 158.5 472.8 158.5C471.6 158.5 470.3 158.2 469.2 157.7C468.1 157.2 467.3 156.3 466.7 155.2C466.1 154 465.7 152.6 465.8 151.3V141.3H469.3V150.7C469.2 152 469.6 153.2 470.4 154.2C472.2 155.8 474.9 155.8 476.6 154.2C477.4 153.2 477.8 152 477.8 150.7V141.3L481.3 141.4Z" fill="white"/>
<path d="M491.5 141.9C492.4 141.4 493.5 141.2 494.5 141.2V144.8H493.6C492.5 144.7 491.3 145.1 490.5 145.8C489.7 146.8 489.3 148.1 489.4 149.4V158.3H485.9V141.4H489.4V143.9C489.9 143 490.6 142.3 491.5 141.9Z" fill="white"/>
<path d="M506 142C507 140.4 508.3 139 510 138.1C513.6 136.1 518 136.2 521.6 138.4C523.4 139.5 524.7 141.2 525.5 143.2H521.3C520.8 142.1 520 141.3 519 140.7C518 140.1 516.8 139.8 515.6 139.9C514.3 139.9 513 140.2 511.8 140.9C510.7 141.5 509.8 142.5 509.2 143.6C507.9 146.2 507.9 149.3 509.2 151.9C509.8 153 510.7 154 511.8 154.7C512.9 155.4 514.3 155.7 515.6 155.7C516.8 155.7 518 155.4 519 154.9C520 154.3 520.8 153.4 521.3 152.4H525.5C524.8 154.4 523.4 156 521.6 157.1C519.8 158.2 517.7 158.8 515.5 158.8C513.6 158.8 511.7 158.3 510 157.4C508.3 156.5 507 155.1 506 153.5C504 149.8 504 145.5 506 142Z" fill="white"/>
<path d="M532.5 157.5C531.2 156.8 530.2 155.7 529.5 154.4C528.7 153 528.4 151.4 528.4 149.8C528.4 148.2 528.8 146.6 529.5 145.2C530.2 143.9 531.3 142.8 532.6 142.1C535.4 140.7 538.6 140.7 541.4 142.1C542.7 142.8 543.8 143.9 544.5 145.2C545.3 146.6 545.7 148.2 545.6 149.8C545.6 151.4 545.2 153 544.4 154.4C543.6 155.7 542.5 156.8 541.2 157.5C539.8 158.2 538.3 158.6 536.8 158.6C535.3 158.7 533.8 158.3 532.5 157.5ZM539.4 154.9C540.2 154.4 540.9 153.8 541.3 153C541.8 152 542.1 151 542 149.9C542 148.8 541.8 147.7 541.3 146.8C540.9 146 540.2 145.3 539.4 144.9C538.6 144.5 537.8 144.2 536.9 144.2C536 144.2 535.2 144.4 534.4 144.9C533.6 145.3 533 146 532.6 146.8C532.1 147.8 531.9 148.8 531.9 149.9C531.8 151.4 532.3 153 533.3 154.1C534.2 155.1 535.5 155.6 536.8 155.6C537.7 155.6 538.6 155.4 539.4 154.9Z" fill="white"/>
<path d="M573.2 142C574.3 142.5 575.1 143.4 575.7 144.5C576.3 145.7 576.7 147.1 576.6 148.4V158.4H573.1V148.9C573.2 147.6 572.8 146.4 572 145.4C570.2 143.8 567.5 143.8 565.8 145.4C565 146.4 564.6 147.6 564.6 148.9V158.4H561.1V148.9C561.2 147.6 560.8 146.4 559.9 145.4C558.1 143.8 555.4 143.8 553.7 145.4C552.9 146.4 552.5 147.6 552.5 148.9V158.4H549V141.5H552.5V143.4C553.1 142.7 553.8 142.1 554.7 141.8C555.6 141.4 556.6 141.2 557.5 141.2C558.8 141.2 560 141.5 561.1 142.1C562.1 142.7 563 143.5 563.6 144.6C564.1 143.6 565 142.7 566 142.2C567.1 141.6 568.3 141.3 569.5 141.3C570.9 141.1 572.1 141.4 573.2 142Z" fill="white"/>
<path d="M605.1 142C606.2 142.5 607 143.4 607.6 144.5C608.2 145.7 608.6 147.1 608.5 148.4V158.4H605V148.9C605.1 147.6 604.7 146.4 603.9 145.4C603.1 144.6 602 144.1 600.8 144.2C599.6 144.1 598.5 144.6 597.7 145.4C596.9 146.4 596.5 147.6 596.5 148.9V158.4H593V148.9C593.1 147.6 592.7 146.4 591.9 145.4C591.1 144.6 590 144.1 588.8 144.2C587.6 144.1 586.5 144.6 585.7 145.4C584.9 146.4 584.5 147.6 584.5 148.9V158.4H581V141.4H584.5V143.3C585.1 142.6 585.8 142 586.7 141.7C587.6 141.3 588.6 141.1 589.5 141.1C590.8 141.1 592 141.4 593.1 142C594.2 142.6 595 143.4 595.6 144.5C596.1 143.5 597 142.6 598 142.1C599.1 141.5 600.3 141.2 601.5 141.2C602.8 141.1 604 141.4 605.1 142Z" fill="white"/>
<path d="M628.3 141.4V158.3H624.8V156.3C624.2 157 623.5 157.6 622.6 157.9C621.7 158.3 620.7 158.5 619.8 158.5C618.6 158.5 617.3 158.2 616.2 157.7C615.1 157.1 614.3 156.3 613.7 155.2C613.1 154 612.8 152.6 612.8 151.3V141.3H616.3V150.7C616.2 152 616.6 153.2 617.4 154.2C618.2 155 619.3 155.5 620.5 155.4C621.7 155.5 622.8 155 623.6 154.2C624.4 153.2 624.8 152 624.8 150.7V141.3L628.3 141.4Z" fill="white"/>
<path d="M645.1 142C646.2 142.6 647 143.4 647.6 144.5C648.2 145.7 648.5 147.1 648.5 148.4V158.4H645V148.9C645.1 147.6 644.7 146.4 643.9 145.4C643.1 144.6 642 144.1 640.8 144.2C639.6 144.1 638.5 144.6 637.7 145.4C636.9 146.4 636.5 147.6 636.5 148.9V158.4H633V141.4H636.5V143.3C637.1 142.6 637.8 142 638.7 141.7C639.6 141.3 640.6 141.1 641.5 141.1C642.8 141.1 644 141.4 645.1 142Z" fill="white"/>
<path d="M653.1 138.5C652.2 137.6 652.2 136.2 653.1 135.3C653.5 134.9 654.1 134.6 654.7 134.6C655.9 134.7 656.9 135.8 656.8 137C656.7 138.1 655.8 139 654.7 139.1C654.1 139.2 653.5 139 653.1 138.5ZM656.4 141.4V158.3H652.9V141.4H656.4Z" fill="white"/>
<path d="M665.1 144.3V153.7C665.1 154.2 665.2 154.7 665.5 155.1C665.9 155.4 666.5 155.6 667 155.5H669.2V158.4H666.4C665.1 158.5 663.8 158.1 662.8 157.3C661.9 156.3 661.4 155 661.5 153.7V144.3H659.5V141.4H661.5V137.2H665V141.4H669.1V144.3H665.1Z" fill="white"/>
<path d="M687.7 141.4L677.3 166.3H673.7L677.1 158.1L670.4 141.4H674.3L679.1 154.3L684.1 141.4H687.7Z" fill="white"/>
</svg>
