<?xml version="1.0" encoding="UTF-8"?>
<svg width="50" height="47" viewBox="0 0 1053 987" fill="none" xmlns="http://www.w3.org/2000/svg">
    <path d="M957.158 0.770165L815.237 0.657715L846.697 100.693L857.306 134.444L829.473 155.25L589.981 334.445L801.6 493.282L1052.89 305.289L957.158 0.770165Z" fill="#FFC800"/>
    <path d="M223.323 154.888L195.53 134.013L206.18 100.317L237.639 0.646202L96.235 0.53418L0.104492 304.941L251.087 493.327L462.99 334.77L223.323 154.888Z" fill="#E1AA00"/>
    <path d="M502.192 161.848L287.451 0.727051L251.21 115.473L502.192 303.859L502.328 303.747V161.82L502.192 161.848Z" fill="#E1AA00"/>
    <path d="M765.574 0.890137L550.547 161.759V303.686L801.679 115.804L765.574 0.890137Z" fill="#FFC800"/>
    <path d="M278.907 532.814L251.74 553.171L251.21 554.824L502.192 743.21L502.328 743.098V365.654L278.907 532.814Z" fill="#E1AA00"/>
    <path d="M801.068 553.29L773.765 532.779L550.832 365.451L550.547 365.662V743.105L801.679 555.224L801.068 553.29Z" fill="#FFC800"/>
    <path d="M502.152 803.537L474.36 782.675L297.856 650.22L251.21 797.946L502.192 986.333L502.328 986.221V803.397L502.152 803.537Z" fill="#E1AA00"/>
    <path d="M755.169 650.314L578.203 782.714L550.547 803.407V986.231L801.679 798.349L755.169 650.314Z" fill="#FFC800"/>
</svg>