<svg xmlns="http://www.w3.org/2000/svg" width="18.87" height="21" viewBox="0 0 18.87 21">
  <g id="Night_Mode" data-name="Night Mode" transform="translate(-219 15)">
    <path id="Path_248" data-name="Path 248" d="M1019.755-1228.222c-.5.43-.962.806-1.4,1.212a9.347,9.347,0,0,0-2.876,5.4,8.206,8.206,0,0,0,.664,5.31,9.416,9.416,0,0,0,6.977,5.254,16.448,16.448,0,0,0,3.187.072c.079,0,.159,0,.238,0,0,.019.012.04.007.044a17.335,17.335,0,0,1-3.021,2.371,10.41,10.41,0,0,1-11.917-1.211,10.223,10.223,0,0,1-3.563-6.715,10.517,10.517,0,0,1,6.235-10.872,10.813,10.813,0,0,1,4.669-.864C1019.2-1228.216,1019.447-1228.222,1019.755-1228.222Z" transform="translate(-788.98 1213.227)" fill="#707070"/>
    <path id="Path_249" data-name="Path 249" d="M1182.924-1172a5.3,5.3,0,0,0,1.252-.741,5.37,5.37,0,0,0,.732-1.243,5.7,5.7,0,0,0,.732,1.24,5.243,5.243,0,0,0,1.255.741,5.818,5.818,0,0,0-1.24.73,5.214,5.214,0,0,0-.743,1.255,5.838,5.838,0,0,0-.73-1.238A5.225,5.225,0,0,0,1182.924-1172Z" transform="translate(-952.695 1162.469)" fill="#707070"/>
    <path id="Path_250" data-name="Path 250" d="M1242.405-1086.468a5.487,5.487,0,0,0-1.288.758,5.493,5.493,0,0,0-.756,1.283,5.636,5.636,0,0,0-.759-1.285,5.568,5.568,0,0,0-1.282-.756,5.493,5.493,0,0,0,1.285-.759,5.526,5.526,0,0,0,.755-1.282,5.576,5.576,0,0,0,.76,1.285A5.516,5.516,0,0,0,1242.405-1086.468Z" transform="translate(-1004.535 1082.477)" fill="#707070"/>
  </g>
</svg>
