<svg width="8" height="5" viewBox="0 0 8 5" fill="none" xmlns="http://www.w3.org/2000/svg">
<path d="M4.70703 4.293C4.5195 4.48047 4.26519 4.58578 4.00003 4.58578C3.73486 4.58578 3.48056 4.48047 3.29303 4.293L0.707028 1.707C0.567219 1.56715 0.472013 1.38898 0.433445 1.19503C0.394877 1.00108 0.41468 0.800044 0.490351 0.617344C0.566021 0.434644 0.69416 0.278481 0.85857 0.168597C1.02298 0.0587125 1.21628 4.1008e-05 1.41403 -1.43051e-06L6.58603 -1.43051e-06C6.78378 4.1008e-05 6.97708 0.0587125 7.14149 0.168597C7.3059 0.278481 7.43404 0.434644 7.50971 0.617344C7.58538 0.800044 7.60518 1.00108 7.56661 1.19503C7.52804 1.38898 7.43284 1.56715 7.29303 1.707L4.70703 4.293Z" fill="white"/>
</svg>
