<svg xmlns="http://www.w3.org/2000/svg" width="21" height="21" viewBox="0 0 21 21">
  <g id="Settings" transform="translate(89 -302)">
    <path id="Path_237" data-name="Path 237" d="M-1624.841,24.147h-4.554a.66.66,0,0,1-.443-.588c-.11-.819-.24-1.636-.352-2.455a.306.306,0,0,0-.191-.258c-.508-.275-1.012-.557-1.506-.855a.337.337,0,0,0-.344-.032c-.778.311-1.56.615-2.341.921-.453.178-.655.11-.9-.305l-1.98-3.335c-.26-.438-.222-.637.182-.946.663-.506,1.325-1.014,1.992-1.516a.282.282,0,0,0,.122-.273q-.02-.859,0-1.718a.283.283,0,0,0-.122-.273q-1.016-.766-2.025-1.542a.564.564,0,0,1-.172-.885q1-1.694,2.011-3.388a.6.6,0,0,1,.874-.295c.794.311,1.589.62,2.38.937a.3.3,0,0,0,.305-.03c.509-.3,1.029-.583,1.538-.882a.365.365,0,0,0,.164-.222c.133-.844.251-1.689.379-2.534a.552.552,0,0,1,.628-.526q2.076,0,4.153,0a.558.558,0,0,1,.629.528c.127.838.252,1.676.367,2.515a.306.306,0,0,0,.192.257c.508.275,1.012.557,1.506.855a.336.336,0,0,0,.344.031c.779-.311,1.56-.615,2.341-.921.453-.178.654-.11.9.306l1.991,3.352c.245.413.2.623-.178.915-.669.51-1.337,1.021-2.01,1.526a.3.3,0,0,0-.125.292c.016.559.017,1.118,0,1.677a.314.314,0,0,0,.133.308c.678.509,1.352,1.025,2.025,1.541a.554.554,0,0,1,.171.854q-1.014,1.713-2.032,3.424a.592.592,0,0,1-.861.284c-.8-.313-1.6-.625-2.4-.944a.285.285,0,0,0-.286.032q-.763.45-1.542.876a.271.271,0,0,0-.172.225c-.115.826-.247,1.649-.357,2.475A.672.672,0,0,1-1624.841,24.147Zm-6.058-10.53a3.716,3.716,0,0,0,3.753,3.7,3.711,3.711,0,0,0,3.8-3.63,3.707,3.707,0,0,0-3.738-3.711A3.721,3.721,0,0,0-1630.9,13.617Z" transform="translate(1548.618 298.853)" fill="#707070"/>
  </g>
</svg>
