<?xml version="1.0" encoding="utf-8"?>
<!-- Generator: Adobe Illustrator 25.4.1, SVG Export Plug-In . SVG Version: 6.00 Build 0)  -->
<svg version="1.1" id="Layer_1" xmlns="http://www.w3.org/2000/svg" xmlns:xlink="http://www.w3.org/1999/xlink" x="0px" y="0px"
	 viewBox="0 0 150 150" style="enable-background:new 0 0 150 150;" xml:space="preserve">
<style type="text/css">
	.st0{fill:#E57826;}
</style>
<g>
	<path class="st0" d="M148.7,95.3c-0.5,2.4-0.8,4.8-1.5,7.2c-4.9,17.5-21.3,29.3-39.6,28.6c-17.7-0.7-32.9-14-36.4-31.7
		c-4.3-22.2,11.7-43.7,34.2-45.9c21-2.1,39.6,12.4,42.9,33.3c0.1,0.8,0.3,1.5,0.4,2.3C148.7,91.1,148.7,93.2,148.7,95.3z M105.1,113
		c0,1.7,0,3.4,0,5c0.1,2.5,1.9,4.3,4.3,4.4c2.4,0,4.3-1.9,4.4-4.4c0-1.2,0.1-2.5,0-3.7c-0.1-0.9,0.2-1.3,1.1-1.7
		c5.6-2.6,8.5-8.5,7.3-14.5c-1.2-5.8-6.3-10-12.3-10.2c-2.2-0.1-3.7-1.1-4.4-2.9c-0.6-1.7-0.1-3.6,1.2-4.7c1.6-1.4,3.4-1.4,5.2-0.4
		c0.9,0.5,1.7,1.2,2.6,1.9c1.9,1.4,4.3,1.2,5.9-0.4c1.6-1.7,1.5-4.3-0.1-6c-0.8-0.8-1.7-1.5-2.6-2.1c-1.2-0.8-3.1-1.3-3.7-2.4
		c-0.6-1.2-0.1-3-0.2-4.5c-0.1-2.6-1.9-4.4-4.4-4.4c-2.4,0-4.2,1.9-4.3,4.5c0,1.6,0,3.3,0,4.9c-7.2,2.8-9.3,9.4-8.5,14.1
		c1.1,6.5,6,10.9,12.7,11.2c2,0.1,3.4,1,4.1,2.8c0.7,1.6,0.3,3.4-1,4.6c-1.5,1.4-3.2,1.7-4.9,0.8c-1.3-0.7-2.5-1.7-3.6-2.8
		c-1.9-1.9-4.5-2.1-6.3-0.4s-1.8,4.3,0,6.3C99.6,110.2,102.1,111.9,105.1,113z"/>
	<path class="st0" d="M53.2,148.7c0-37.6,0-75.2,0-113c-0.5,0-1-0.1-1.5-0.1c-3.7,0-7.5,0-11.2,0c-2.2,0-3.7-1.1-4.3-2.9
		c-0.6-1.8-0.1-3.5,1.5-4.9c9.9-8.5,19.8-17,29.8-25.5c2-1.7,4.1-1.8,6.1,0c10,8.5,19.9,17.1,29.9,25.6c1.6,1.4,2.1,3.1,1.4,4.9
		c-0.7,1.8-2.2,2.8-4.4,2.8c-4.1,0-8.3,0-12.6,0c0,0.6,0,1.1,0,1.6c0,3.8,0,7.7,0,11.5c0,0.8-0.3,1.2-1,1.7
		C70.1,60.2,61.3,74.8,62,94.2c0.7,17.6,9.4,30.8,24.6,39.6c0.9,0.5,1.2,1,1.2,2c-0.1,2.4-0.1,4.7,0,7.1c0.2,2.7-0.7,4.7-3.2,5.8
		C74.2,148.7,63.7,148.7,53.2,148.7z"/>
	<path class="st0" d="M27.3,148.7c0-27.2,0-54.3,0-81.5c0-3.8,1.6-5.4,5.3-5.4c3.9,0,7.9,0,12,0c0,29,0,57.9,0,86.8
		C38.8,148.7,33,148.7,27.3,148.7z"/>
	<path class="st0" d="M4.2,148.7c-2.5-1.2-3.2-3.1-3.2-5.8c0.1-13.7,0-27.5,0-41.2c0-3.6,1.6-5.2,5.2-5.2c4,0,8,0,12.1,0
		c0,17.5,0,34.8,0,52.2C13.6,148.7,8.9,148.7,4.2,148.7z"/>
</g>
</svg>
