<svg width="8" height="15" viewBox="0 0 8 15" fill="none" xmlns="http://www.w3.org/2000/svg">
<path d="M0.0404622 15C0.0952031 14.7757 0.199318 14.5709 0.285544 14.3591C1.15066 12.2329 2.01733 10.1074 2.88556 7.98246C2.90523 7.93375 2.93779 7.888 2.93064 7.82232H0.00146395C-0.0081962 7.75184 0.0322329 7.70608 0.0558467 7.65701C1.26587 5.15399 2.47673 2.65086 3.68842 0.147598C3.71168 0.0996285 3.73243 0.0498143 3.75425 0H7.78039C7.50061 0.461612 7.22261 0.925069 6.94068 1.38521C6.18718 2.61519 5.43309 3.84345 4.67841 5.06999C4.6548 5.10873 4.5997 5.15043 4.62689 5.19544C4.65408 5.24046 4.71455 5.21279 4.76034 5.21279C5.78837 5.21279 6.81629 5.21279 7.84408 5.21279H7.99649C8.01295 5.27957 7.96751 5.30282 7.94211 5.33382C5.46983 8.37212 2.99647 11.4082 0.522039 14.4421C0.36676 14.6321 0.232592 14.8432 0.0404622 15Z" fill="#FFC800"/>
</svg>
