<svg height="512" viewBox="0 0 32 32" width="512" xmlns="http://www.w3.org/2000/svg">
    <g id="Layer_24" data-name="Layer 24">
        <path
            d="m31 12a1 1 0 0 1 -.29.71l-6 6a1 1 0 0 1 -.71.29 1 1 0 0 1 -.38-.07 1 1 0 0 1 -.62-.93v-3h-9a1 1 0 0 1 -1-1v-4a1 1 0 0 1 1-1h9v-3a1 1 0 0 1 1.71-.7l6 6a1 1 0 0 1 .29.7zm-13 5h-9v-3a1 1 0 0 0 -.62-.92 1 1 0 0 0 -1.09.21l-6 6a1 1 0 0 0 -.29.71 1 1 0 0 0 .29.71l6 6a1 1 0 0 0 .71.29.84.84 0 0 0 .38-.08 1 1 0 0 0 .62-.92v-3h9a1 1 0 0 0 1-1v-4a1 1 0 0 0 -1-1z" />
    </g>
</svg>