<?xml version="1.0" encoding="utf-8"?>
<!-- Generator: Adobe Illustrator 25.4.1, SVG Export Plug-In . SVG Version: 6.00 Build 0)  -->
<svg version="1.1" id="Layer_1" xmlns="http://www.w3.org/2000/svg" xmlns:xlink="http://www.w3.org/1999/xlink" x="0px" y="0px"
	 viewBox="0 0 150 150" style="enable-background:new 0 0 150 150;" xml:space="preserve">
<style type="text/css">
	.st0{fill:#E57826;}
</style>
<g>
	<path class="st0" d="M48.1,0.5c0,30,0,60,0,89.9c0,4.2-1.7,5.9-5.9,5.9c-4.3,0-8.7,0-13.2,0c0-32,0-63.9,0-95.8
		C35.4,0.5,41.8,0.5,48.1,0.5z"/>
	<path class="st0" d="M15.6,0.5c2.7,1.3,3.6,3.4,3.5,6.4c-0.1,15.2,0,30.3,0,45.5c0,3.9-1.8,5.7-5.7,5.7c-4.4,0-8.8,0-13.4,0
		C0,38.8,0,19.7,0,0.5C5.2,0.5,10.4,0.5,15.6,0.5z"/>
	<path class="st0" d="M148.5,59c-0.4,2.1-0.7,4.1-1.3,6.2c-4.2,15-18.3,25.1-34,24.5C98,89,85,77.7,82,62.4
		c-3.7-19,10.1-37.5,29.4-39.4c18-1.8,34,10.6,36.8,28.6c0.1,0.6,0.2,1.3,0.3,1.9C148.5,55.3,148.5,57.1,148.5,59z M111.2,74.1
		c0,1.5,0,2.9,0,4.3c0,2.1,1.6,3.7,3.6,3.8c2.1,0,3.7-1.6,3.8-3.8c0-1.1,0.1-2.1,0-3.2c0-0.8,0.2-1.1,0.9-1.5
		c4.8-2.3,7.3-7.3,6.3-12.5c-1-4.9-5.4-8.6-10.6-8.8c-1.9-0.1-3.2-0.9-3.8-2.5c-0.5-1.4-0.1-3.1,1-4c1.4-1.2,3-1.2,4.5-0.4
		c0.8,0.4,1.5,1,2.2,1.6c1.6,1.2,3.7,1.1,5-0.4c1.3-1.5,1.3-3.7-0.1-5.1c-0.7-0.7-1.4-1.3-2.2-1.8c-1.1-0.7-2.6-1.1-3.1-2
		c-0.5-1-0.1-2.6-0.1-3.9c-0.1-2.2-1.7-3.8-3.7-3.8c-2.1,0-3.6,1.7-3.7,3.9c0,1.4,0,2.8,0,4.2c-6.2,2.4-8,8.1-7.3,12.1
		c0.9,5.6,5.2,9.3,10.9,9.6c1.7,0.1,2.9,0.8,3.6,2.4c0.6,1.4,0.2,3-0.9,4c-1.3,1.2-2.8,1.4-4.2,0.7c-1.1-0.6-2.2-1.5-3.1-2.4
		c-1.7-1.6-3.9-1.8-5.4-0.3c-1.6,1.5-1.6,3.7,0,5.4C106.4,71.7,108.6,73.2,111.2,74.1z"/>
	<path class="st0" d="M109.9,110.3c-4.1,0-8.3,0-12.4,0c-0.5,0-1,0-1.6-0.1c0-10.2,0-5.3,0-15.4c-11.7-5.8-20.6-17-23.3-30.6
		C68.8,44.9,79.1,26,95.9,17.7c0-5.7,0-11.4,0-17.2c-11.6,0-23.1,0-34.7,0c-2.8,1.3-3.7,3.4-3.5,6.4c0.2,2.6,0,101.3,0,103.9
		c0.1,4.2,0-6.5,0-2.3c0,0.6,0,1.1,0,1.7c-4.8,0-9.4,0-13.9,0c-2.4,0-4.1,1.1-4.9,3.1c-0.7,2-0.2,3.9,1.6,5.4
		c11,9.4,22,18.9,33,28.3c2.2,1.9,4.5,1.9,6.7,0c11-9.4,21.9-18.8,32.9-28.2c1.8-1.6,2.4-3.4,1.7-5.4
		C114,111.5,112.3,110.3,109.9,110.3z"/>
</g>
</svg>
