<svg xmlns="http://www.w3.org/2000/svg" width="23" height="20" fill="none" viewBox="0 0 23 20">
  <path fill="#E6E9EC" d="M16.808 6.512H23V3.488a3.586 3.586 0 0 0-.975-2.467A3.24 3.24 0 0 0 19.677 0H3.317C2.437.001 1.595.37.973 1.023A3.586 3.586 0 0 0 0 3.488v13.024c.001.924.351 1.811.973 2.465A3.241 3.241 0 0 0 3.317 20h16.36a3.242 3.242 0 0 0 2.345-1.023c.622-.654.971-1.54.972-2.465V13.49h-6.186c-.88 0-1.724-.368-2.346-1.022a3.582 3.582 0 0 1-.971-2.466c0-.926.35-1.813.971-2.467a3.237 3.237 0 0 1 2.346-1.022v-.001Z"/>
  <path fill="#FAF9FD" d="M16.808 7.91c-.528 0-1.034.22-1.408.613a2.15 2.15 0 0 0-.583 1.48c0 .556.21 1.088.583 1.48.374.394.88.614 1.408.614H23V7.912h-6.192V7.91Zm.885 2.788h-.885a.647.647 0 0 1-.47-.204.716.716 0 0 1-.194-.493c0-.185.07-.363.195-.494a.647.647 0 0 1 .469-.204h.885c.176 0 .344.073.469.204.124.131.194.309.194.494s-.07.362-.194.493a.647.647 0 0 1-.47.204Z"/>
</svg>
