<?xml version="1.0" encoding="utf-8"?>
<!-- Generator: Adobe Illustrator 25.4.1, SVG Export Plug-In . SVG Version: 6.00 Build 0)  -->
<svg version="1.1" id="Layer_1" xmlns="http://www.w3.org/2000/svg" xmlns:xlink="http://www.w3.org/1999/xlink" x="0px" y="0px"
	 viewBox="0 0 363.4 277.9" style="enable-background:new 0 0 363.4 277.9;" xml:space="preserve">
<style type="text/css">
	.st0{fill:#E57826;}
</style>
<path class="st0" d="M147.8,164.5c1.4,0,2.4,1.4,3.3,2.9c2.8,4.4,7.9,6.4,12.7,4.9c5-1.5,8.1-6,7.9-11.3c-0.2-4.9-3.8-9.1-8.6-10.2
	c-4.9-1.1-9.8,1.1-12.2,5.6c-1,1.9-2.4,2.7-4.6,2.7c-0.9,0-1.5,0-1.9,0c-0.1,0-0.3,0-0.5,0c-0.1,0-0.1,0-0.2,0l-1.4,0
	c-0.3,0-0.6-0.1-0.8-0.1v5.6c2.1,0,2.8,0,3,0c0,0,0.1,0,0.1,0l1.4,0l0,0.1C146.5,164.5,147.1,164.5,147.8,164.5z M156.5,157.7
	c1.1-1.1,2.5-1.7,4-1.8c1.6,0,3,0.5,4.1,1.6c1.1,1,1.7,2.5,1.7,4c0,1.6-0.5,3-1.6,4.1c-1,1.1-2.5,1.7-4,1.7c0,0-0.1,0-0.1,0
	c-3.1,0-5.7-2.4-5.8-5.6C154.9,160.3,155.4,158.8,156.5,157.7z"/>
<path class="st0" d="M282.5,176.8c-4.4,0-8.3,0-12.3,0c-10.3,0-20.6,0.1-30.9,0c-9.5-0.1-16.5-7.1-16.6-16.6
	c-0.1-10.4-0.1-20.8,0-31.3c0-10.1,7-17.1,17.1-17.1c12.9,0,25.8,0,38.7,0c1.2,0,2.4,0,3.8,0c0.1-1.3,0.1-2.3,0.1-3.3
	c0-13.1,0-26.3,0-39.4c0-10.4-6.9-17.3-17.2-17.3c-64.8,0-129.6,0-194.3,0c-10,0-17,7.1-17,17.2c0,26,0,52.1,0,78.1
	c0,1.1,0.1,2.3-0.1,3.4c-0.6,2.7-2.3,4.5-5.2,4.5c-2.8,0-4.6-1.7-5.2-4.5c-0.2-1.1-0.1-2.3-0.1-3.4c0-25.6,0-51.2,0-76.8
	c0-16.9,9.9-27.2,26.6-29.4c11.5-1.5,22.8-4.5,34.2-6.9C148,24.9,192,15.7,235.9,6.6c17.4-3.6,31.6,6.8,33.6,24.6
	c0,0.2,0.1,0.4,0.1,0.7c0,6.1,1.8,9.9,8.5,12.5c10.2,4,14.9,13.2,15,24.2c0.2,13,0,26,0,39.1c0,1.2,0,2.4,0,4.1c3.5,0,6.7,0,10,0
	c10.2,0.1,17.1,6.9,17.2,17c0.1,10.3,0,20.6,0,30.9c0,10.1-7,17-17.1,17.1c-3.2,0-6.3,0-10,0c0,1.4,0,2.6,0,3.7
	c0,12.8,0,25.6,0,38.4c0,17-11.6,28.5-28.7,28.5c-29.6,0-59.1,0-88.7,0c-0.9,0-1.8,0.1-2.7-0.1c-2.8-0.4-4.9-2.8-4.7-5.4
	c0.2-2.8,1.8-4.6,4.6-5.1c1.1-0.2,2.3-0.1,3.4-0.1c29.3,0,58.7,0,88,0c11.5,0,18.1-6.6,18.1-18.1
	C282.5,204.9,282.5,191.1,282.5,176.8z M271.7,122.4c-10.6,0-21.3,0-31.9,0c-4.4,0-6.4,2-6.4,6.5c0,10.2,0,20.4,0,30.6
	c0,4.6,2,6.7,6.6,6.7c21.1,0,42.1,0,63.2,0c4.6,0,6.6-2,6.6-6.6c0-10.1,0-20.1,0-30.2c0-4.9-1.9-6.8-6.7-6.8
	C292.5,122.4,282.1,122.4,271.7,122.4z M125.7,40.4c0,0.2,0,0.3,0.1,0.5c44.7,0,89.4,0,134.4,0c-0.4-3.5-0.8-6.7-1.3-10
	c-1.4-10.1-10.1-16.1-20.1-14c-29.1,6-58.2,12.1-87.3,18.1C142.8,36.7,134.2,38.6,125.7,40.4z"/>
<path class="st0" d="M102.2,143.4c35.4,0.2,63.9,28.8,63.8,64.1c-0.1,35.4-29,64-64.5,63.8c-35.4-0.2-63.9-29.2-63.6-64.7
	C38.2,171.6,67,143.2,102.2,143.4z M101.8,260.7c29.3,0.1,53.4-23.6,53.6-52.8c0.1-29.8-23.8-54.1-53.4-54.1
	c-29.4,0-53.4,23.9-53.5,53.2C48.4,236.8,72.1,260.6,101.8,260.7z"/>
<path class="st0" d="M220.8,220.8c-2.7,0-5.4,0.1-8.1,0c-3.5-0.2-5.7-2.4-5.5-5.6c0.1-3,2.3-4.9,5.7-5c5.4-0.1,10.9-0.1,16.3,0
	c3.5,0,5.6,2,5.7,5c0.1,3.1-2,5.3-5.5,5.6c-0.2,0-0.5,0-0.7,0C226,220.8,223.4,220.8,220.8,220.8z"/>
<path class="st0" d="M151,68.9c2.6,0,5.2-0.1,7.8,0c3.2,0.1,5.2,2.1,5.3,5c0.1,2.9-1.7,5.3-4.8,5.5c-5.4,0.2-10.8,0.2-16.2,0
	c-3.1-0.1-5.1-2.5-5.1-5.3c0-2.9,2.3-5.1,5.5-5.2C146,68.8,148.5,68.9,151,68.9z"/>
<path class="st0" d="M187.9,68.9c2.5,0,5-0.1,7.4,0c3,0.1,5.3,2.3,5.3,5c-0.1,3-1.7,5.2-4.6,5.3c-5.6,0.3-11.3,0.3-16.9,0
	c-2.9-0.2-4.6-2.3-4.6-5.3c0-2.8,2.2-4.9,5.3-5C182.5,68.8,185.2,68.9,187.9,68.9z"/>
<path class="st0" d="M114.7,68.9c2.6,0,5.2-0.1,7.8,0c3,0.1,4.9,2.1,5,4.9c0.1,3.1-1.5,5.3-4.4,5.4c-5.6,0.3-11.3,0.3-17,0
	c-3.1-0.1-4.8-2.7-4.5-5.7c0.3-3.1,2.2-4.5,5.2-4.7c1.4-0.1,2.7,0,4.1,0C112.2,68.9,113.5,68.9,114.7,68.9
	C114.7,68.9,114.7,68.9,114.7,68.9z"/>
<path class="st0" d="M224,68.9c2.6,0,5.2-0.1,7.8,0c3,0.1,4.9,1.7,5.2,4.8c0.3,3-1.5,5.5-4.6,5.6c-5.5,0.3-11.1,0.3-16.6,0
	c-3.1-0.1-4.9-2.6-4.7-5.6c0.3-3.1,2.1-4.7,5.1-4.8C218.8,68.8,221.4,68.9,224,68.9z"/>
<path class="st0" d="M256.4,68.9c1.6,0,3.2-0.1,4.7,0c2.9,0.3,4.5,2.1,4.7,4.9c0.2,2.6-1.2,4.9-3.8,5.2c-3.5,0.4-7.2,0.5-10.7,0.1
	c-2.8-0.3-4.3-2.6-4.1-5.4c0.3-2.9,2.1-4.7,5.1-4.9C253.7,68.8,255.1,68.9,256.4,68.9C256.4,68.9,256.4,68.9,256.4,68.9z"/>
<path class="st0" d="M256.4,210.3c1.5,0,2.9-0.1,4.4,0c3,0.2,4.8,2,5.1,4.9c0.2,2.8-1.3,5-4.1,5.3c-3.4,0.4-7,0.4-10.4,0
	c-2.8-0.3-4.3-2.6-4.1-5.3c0.2-2.9,2-4.7,5.1-4.9C253.7,210.2,255.1,210.3,256.4,210.3z"/>
<path class="st0" d="M81.6,68.9c1.4,0,2.7-0.1,4.1,0c2.8,0.2,4.7,1.6,5,4.5c0.4,3-1,5.3-4,5.7c-3.4,0.4-7,0.4-10.4,0
	c-2.8-0.3-4.2-2.6-3.9-5.5c0.2-2.9,2-4.5,4.8-4.7C78.6,68.8,80.1,68.9,81.6,68.9z"/>
<path class="st0" d="M184.8,220.9c-1.7-0.1-3.4,0-5.1-0.3c-3-0.6-4.4-2.7-4.1-5.7c0.3-2.9,2.1-4.5,4.9-4.6c2.7-0.1,5.4-0.1,8.1,0
	c3.2,0.1,5.2,2,5.3,5c0.1,3-1.7,5.1-4.8,5.5c-1.4,0.2-2.9,0-4.4,0C184.8,220.8,184.8,220.9,184.8,220.9z"/>
<path class="st0" d="M265.9,144.1c0.1,5.8-4.9,10.9-10.7,10.9c-5.7,0-10.6-4.8-10.7-10.6c-0.1-5.8,4.9-10.9,10.7-10.9
	C261,133.6,265.8,138.4,265.9,144.1z"/>
<g>
	<path class="st0" d="M96.9,253.1v-10.2c-7.1-0.3-14.1-2.3-18.1-4.6l3.2-12.5c4.5,2.4,10.8,4.7,17.7,4.7c6.1,0,10.3-2.4,10.3-6.6
		c0-4.1-3.4-6.6-11.4-9.2c-11.4-3.9-19.2-9.2-19.2-19.5c0-9.4,6.6-16.8,18-19V166h10.5v9.4c7.1,0.2,11.9,1.8,15.5,3.5l-3.2,12.1
		c-2.7-1.2-7.7-3.7-15.3-3.7c-6.9,0-9.1,3.1-9.1,6c0,3.5,3.7,5.8,12.8,9.1c12.7,4.5,17.8,10.3,17.8,20c0,9.5-6.7,17.5-18.9,19.6v11
		H96.9z"/>
</g>
<path class="st0" d="M131,139.4L131,139.4c2.5,0,4,0.8,5.2,3c2.4,4.2,7.6,6.3,12.4,4.9c4.9-1.4,8.2-5.8,8.1-11
	c-0.1-5-3.4-9.2-8.3-10.5c-5-1.3-10,0.8-12.3,5.1c-1.4,2.7-3.2,3.2-5.7,3.2h0h-0.2c-33.3,0-33.3,0-53.3,0l-23,0v5.4l22,0
	c20.8,0,20.8,0,54.8,0H131z M141.6,132.4c1.1-1.1,2.6-1.7,4.1-1.6c3.1,0.1,5.6,2.7,5.6,5.9c0,1.6-0.6,3-1.7,4c-1,1-2.5,1.5-4,1.5
	c-0.1,0-0.1,0-0.2,0c-3.2-0.1-5.7-2.7-5.6-5.9C139.8,135,140.5,133.5,141.6,132.4z"/>
<path class="st0" d="M54.7,93.8c0.6,0,1.3-0.1,2-0.1c5,0,8.2,0,10.4,0c5.3,0,5.3,0,13,0l6.8,0c1.7,0,3.8,0.7,5.2,1.8
	c4.4,3.5,8.9,7.2,13.8,11.5c1.2,1,1.6,3,1.4,4.3c-0.9,5.4,1.5,10.3,6.1,12.5c4.7,2.3,10.2,1,13.5-3c3.2-3.8,3.4-9.6,0.4-13.6
	c-3.1-4.3-8.4-5.8-13.3-3.8c-2.5,1.1-3.9,0.1-5.2-1c-2-1.7-4-3.4-6.1-5.1c-2.8-2.3-5.7-4.8-8.6-7.2c-1.7-1.5-3.4-2.1-5.6-2.1
	c-14.1,0.1-14.1,0.1-19.5,0.1c-2.4,0-5.9,0-12.1,0H54v5.5C54.2,93.9,54.5,93.9,54.7,93.8z M118.5,108.2c1.5,0,3,0.7,4,1.8
	c1.1,1.1,1.6,2.6,1.6,4.1c-0.1,3.2-2.6,5.6-5.7,5.6c0,0-0.1,0-0.1,0c-1.5,0-3-0.7-4-1.8c-1-1.1-1.6-2.6-1.6-4.1
	C112.7,110.6,115.2,108.1,118.5,108.2z"/>
<path class="st0" d="M56.6,114.9l1.1,0c0,0,0.1,0,0.1,0c0.2,0,0.4,0,0.7,0c0.6,0,1.6,0,3.2,0c2.4,0,3.8,0.8,5,2.9
	c2.5,4.4,7.6,6.5,12.5,5.1c5-1.4,8.2-5.7,8.1-10.9c-0.1-5.1-3.3-9.2-8.3-10.6c-4.8-1.3-9.9,0.8-12.6,5.3c-0.6,1-2.3,2.7-4,2.7
	c-0.8,0-1.4,0-1.9,0c-0.1,0-0.3,0.1-0.4,0.1v0h0c-0.2,0-0.4,0-0.6,0c-0.2,0-0.5,0-0.8,0c-0.2,0-0.3,0-0.5,0c-0.6,0-1.5,0-2.5,0
	c-0.5,0-0.9-0.1-1.4-0.2c-0.1,0-0.1,0-0.2,0v5.8c0.2,0,0.4,0,0.6-0.1C55.3,115,55.9,114.9,56.6,114.9z M76.4,106.4
	c1.6,0,3,0.7,4,1.8c1,1.1,1.6,2.6,1.5,4.1c0,1.6-0.7,3-1.8,4c-1.1,1-2.4,1.5-3.9,1.5c-0.1,0-0.1,0-0.2,0c-3.2-0.1-5.7-2.8-5.6-5.9
	C70.5,108.8,73.1,106.3,76.4,106.4z"/>
</svg>
